<?xml version="1.0" encoding="UTF-8"?>
<svg id="Logo_and_Wordmark" data-name="Logo and Wordmark" xmlns="http://www.w3.org/2000/svg" xmlns:xlink="http://www.w3.org/1999/xlink" viewBox="0 0 113.39 113.39">
  <defs>
    <style>
      .cls-1 {
        fill: url(#New_Gradient_Swatch);
      }

      .cls-2 {
        fill: url(#linear-gradient);
      }

      .cls-3 {
        fill: #fff;
      }
    </style>
    <linearGradient id="linear-gradient" x1="29.47" y1="105.25" x2="60.99" y2="105.25" gradientUnits="userSpaceOnUse">
      <stop offset="0" stop-color="#f79966"/>
      <stop offset=".19" stop-color="#f89274" stop-opacity=".79"/>
      <stop offset=".59" stop-color="#fc8692" stop-opacity=".37"/>
      <stop offset=".87" stop-color="#fe7ea4" stop-opacity=".1"/>
      <stop offset="1" stop-color="#ff7bac" stop-opacity="0"/>
    </linearGradient>
    <linearGradient id="New_Gradient_Swatch" data-name="New Gradient Swatch" x1="75.4" y1="68.6" x2="45.69" y2="49.33" gradientUnits="userSpaceOnUse">
      <stop offset="0" stop-color="#f94e4e"/>
      <stop offset="1" stop-color="#fc7c49"/>
    </linearGradient>
  </defs>
  <g>
    <path class="cls-3" d="M112.59,91l-26.39-12.81c-1.49-.72-3.12-1.1-4.77-1.1h-7.82l-3.45,4.41h11.9c.57,0,1.13.13,1.64.38l20.33,9.87c.44.21.44.83,0,1.04l-19.41,9.42c-1.12.54-2.34.82-3.59.82H30.57c-.06,0-.11-.01-.16-.04l1.58.68c-1.2-.58-2.62-.46-3.71.32-1.04.75-.91,2.34.25,2.91l.86.51s.1.04.16.04h52.4c1.31,0,2.6-.3,3.77-.87l26.86-13.04c1.06-.52,1.06-2.03,0-2.55Z"/>
    <path class="cls-3" d="M30.62,81.5h.67l.15-4.41h-1.52c-.2,0-.59.05-.86.2-6.91,3.75-28.27,13.72-28.27,13.72-1.02.5-1.07,1.98-.05,2.49,1.55.77,3.38.78,4.94.03l5.67-2.74h0s19.02-9.23,19.02-9.23c.08-.04.17-.06.25-.06Z"/>
  </g>
  <polygon class="cls-2" points="37.22 103 60.96 103.02 60.99 107.49 29.47 107.44 37.22 103"/>
  <path class="cls-1" d="M97.22,16.49c-3.05-5.78-10.26-10.33-16.8-10.59-4.29-.17-7.82,1.58-9.91,4.91l-8.36,13.27h0s0,.01,0,.01l-31.8,50.45c-.15.24-.23.5-.26.76,0,.02-.02.04-.02.06l-2.55,30.04c-.06.68.27,1.34.85,1.71.42.26.92.34,1.39.24.18-.04.36-.11.52-.21l26-15.26s.03-.03.04-.05c.22-.14.43-.32.58-.56l40.17-63.74c2.1-3.33,2.16-7.26.15-11.06h0ZM72.74,22.9l-30.72,48.73c-1.35-.39-2.7-.62-3.97-.67-.39-.01-.77,0-1.13,0l28.33-44.95c1.68-2.65,4.48-3.46,7.49-3.13h0ZM79.79,25.52c1.08.68,2.04,1.47,2.92,2.31l-30.93,49.07c-1.88-1.56-4.03-2.92-6.24-3.94l30.95-49.1c1.15.44,2.27,1,3.31,1.66h0ZM43.5,93.45c-.8-1.53-2.2-2.98-3.96-4.08-2.41-1.52-4.83-2.05-6.85-1.68l.98-11.51c.86-1.09,2.29-1.6,4.23-1.53,5.47.21,13.07,5,15.62,9.85.91,1.72,1.06,3.23.45,4.48l-9.95,5.84c-.12-.45-.29-.91-.52-1.36h0ZM56.79,82.78c-.59-1.12-1.37-2.23-2.31-3.28l30.69-48.69c.23.38.48.75.66,1.13,1.16,2.5,1.08,4.82-.24,6.92l-28.32,44.94c-.14-.34-.3-.68-.48-1.03h0ZM86.57,26.5"/>
</svg>