<?xml version="1.0" encoding="UTF-8"?><svg id="Layer_1" xmlns="http://www.w3.org/2000/svg" viewBox="0 0 171.5186 63.6365"><defs><style>.cls-1{fill:none;}.cls-2{fill:#005baa;}.cls-3{fill:#fff;}.cls-4{fill:#52caf5;}.cls-5{opacity:.2;}.cls-6{font-family:Arial;font-weight:bold;font-size:16px;}</style></defs><g class="cls-5"><g><g><path class="cls-2" d="M51.1379,13.333c-.1193,.1906-.2449,.3332-.3762,.4283-.1315,.0951-.3008,.1426-.5077,.1426-.1831,0-.3802-.0572-.591-.1723-.211-.115-.4499-.2436-.7165-.3867-.2669-.1426-.5714-.2711-.9134-.3862-.3425-.115-.7328-.1723-1.1706-.1723-.7564,0-1.3195,.1604-1.6897,.4812-.3702,.3214-.5554,.755-.5554,1.3021,0,.3489,.1115,.6384,.3344,.8679,.2229,.2301,.5156,.4283,.8779,.5946,.3621,.1663,.7762,.3192,1.2419,.458s.9414,.2933,1.4271,.4634c.4855,.1707,.9612,.371,1.4271,.6006,.4657,.2301,.8795,.5233,1.2419,.8798,.3621,.357,.6547,.7907,.8776,1.3021s.3344,1.1277,.3344,1.8493c0,.8004-.1394,1.5495-.4179,2.2473-.2788,.6972-.6826,1.3059-1.2121,1.8249-.5297,.519-1.1822,.9273-1.9584,1.2249-.7765,.297-1.6582,.4456-2.6454,.4456-.5413,0-1.0924-.0556-1.6539-.1663-.5611-.1107-1.1047-.2673-1.63-.4699-.5256-.202-1.0192-.4418-1.4808-.7194-.4619-.2771-.8641-.5865-1.2064-.9273l1.1944-1.8784c.0873-.1431,.2107-.2576,.3702-.3451,.1592-.087,.3301-.1307,.5134-.1307,.2389,0,.4795,.0756,.7225,.2258,.2427,.1507,.5175,.3176,.8239,.4996,.3065,.1825,.6588,.3489,1.0569,.4996,.3979,.1507,.8676,.2258,1.4092,.2258,.7323,0,1.3016-.1604,1.7076-.4818,.406-.3208,.6091-.8301,.6091-1.5279,0-.404-.1115-.7329-.3344-.9867s-.5156-.4639-.8776-.6303c-.3623-.1663-.7743-.3132-1.2362-.4402-.4616-.1264-.9354-.2673-1.4209-.4218-.4857-.1545-.9596-.3451-1.4212-.5709-.4619-.2258-.8738-.5233-1.2362-.8917-.3623-.3689-.6547-.8285-.8776-1.3794s-.3344-1.2309-.3344-2.0394c0-.6497,.1315-1.2838,.3941-1.9022,.2628-.6184,.6487-1.1693,1.1584-1.6527,.5096-.4839,1.1345-.8701,1.8749-1.1596s1.5885-.4342,2.5437-.4342c.5335,0,1.0529,.0416,1.5584,.1253,.5055,.0832,.9853,.2058,1.4391,.3683s.8779,.357,1.272,.5828,.7464,.4818,1.0569,.7669l-1.0032,1.8665Z"/><path class="cls-2" d="M62.9603,17.7325c-.1117,.135-.2191,.242-.3225,.3214-.1036,.0794-.2509,.1188-.4418,.1188-.1833,0-.3485-.0437-.4958-.1307-.1473-.0875-.3124-.1842-.4955-.2916-.1833-.1069-.3981-.2036-.6449-.2911-.2468-.087-.5533-.1307-.9194-.1307-.4537,0-.8462,.0832-1.1763,.2495-.3306,.1663-.6032,.4045-.818,.7135-.2151,.3095-.3745,.6881-.4779,1.1358-.1036,.4477-.1551,.9532-.1551,1.516,0,1.1812,.2286,2.0885,.6867,2.7226,.4575,.6346,1.0884,.9516,1.8928,.9516,.4299,0,.7702-.0535,1.0208-.1609,.2509-.1069,.4638-.2258,.639-.3565s.3363-.2517,.4836-.3629c.1473-.1107,.3325-.1663,.5554-.1663,.2945,0,.5175,.1069,.6688,.3214l1.0748,1.3194c-.3821,.4364-.7843,.7907-1.2064,1.0645-.422,.2733-.8538,.4872-1.2956,.6422-.4418,.1545-.8858,.2614-1.3317,.3208s-.8798,.0891-1.3016,.0891c-.7564,0-1.4789-.1426-2.1675-.4277-.6886-.2857-1.294-.6994-1.8152-1.2427-.5215-.5428-.9354-1.2109-1.2419-2.0037-.3065-.7923-.4597-1.6959-.4597-2.7107,0-.8879,.1332-1.7185,.4-2.4914,.2666-.7729,.6607-1.4426,1.1822-2.0091,.5213-.5671,1.1662-1.0127,1.9346-1.3378s1.6579-.4877,2.669-.4877c.9712,0,1.8231,.1545,2.5556,.4639,.7323,.3089,1.3932,.761,1.9823,1.3556l-.9791,1.2957Z"/><path class="cls-2" d="M65.2768,27.1381V9.338h3.7021v6.5518c.4456-.3808,.9294-.6875,1.451-.9214,.5213-.2339,1.1442-.3511,1.8689-.3511,.6764,0,1.2758,.1172,1.7971,.3511,.5215,.2339,.9614,.5584,1.3197,.9749,.3583,.4159,.6289,.9117,.812,1.4863s.2747,1.199,.2747,1.8725v7.8361h-3.7021v-7.8361c0-.6022-.1394-1.0715-.4179-1.4085-.2788-.337-.6889-.5055-1.23-.5055-.4063,0-.7884,.0875-1.1464,.2614-.3583,.1744-.7008,.4083-1.0271,.7016v8.7872h-3.7021Z"/><path class="cls-2" d="M78.2934,27.1381V14.8074h2.1974c.1831,0,.3363,.0162,.4597,.0475,.1234,.0319,.227,.0816,.3105,.1491s.1473,.1566,.1909,.2673c.0437,.1113,.0816,.2457,.1136,.4045l.2029,1.1531c.4537-.6972,.9633-1.2487,1.5286-1.6527,.5652-.4045,1.1822-.6065,1.851-.6065,.5652,0,1.0189,.135,1.3615,.4045l-.4776,2.7107c-.032,.1669-.0957,.2835-.1912,.3511s-.2229,.101-.3821,.101c-.1353,0-.2945-.0178-.4776-.0535-.1833-.0356-.4141-.0535-.6927-.0535-.9715,0-1.7358,.5152-2.2928,1.5457v7.5623h-3.7021Z"/><path class="cls-2" d="M92.8388,14.6173c.9392,0,1.7952,.1469,2.5676,.4402,.7719,.2933,1.4347,.7135,1.9883,1.26,.5533,.5471,.9831,1.2114,1.2896,1.9918,.3065,.781,.46,1.6586,.46,2.634,0,.983-.1535,1.8687-.46,2.6572-.3065,.7891-.7363,1.4588-1.2896,2.0097-.5535,.5509-1.2164,.9749-1.9883,1.2724-.7724,.297-1.6284,.4456-2.5676,.4456-.9476,0-1.8093-.1485-2.5855-.4456-.7762-.2976-1.445-.7216-2.0064-1.2724-.5611-.5509-.9951-1.2206-1.3016-2.0097-.3067-.7885-.4597-1.6743-.4597-2.6572,0-.9754,.153-1.853,.4597-2.634,.3065-.7804,.7404-1.4447,1.3016-1.9918,.5614-.5466,1.2302-.9668,2.0064-1.26s1.6379-.4402,2.5855-.4402Zm0,9.9764c.8516,0,1.4787-.2992,1.8809-.8982,.4019-.5984,.6029-1.5079,.6029-2.7285s-.201-2.1285-.6029-2.7231c-.4022-.5946-1.0293-.8917-1.8809-.8917-.876,0-1.5166,.297-1.9229,.8917-.406,.5946-.6089,1.5025-.6089,2.7231s.2029,2.1301,.6089,2.7285c.4063,.599,1.0469,.8982,1.9229,.8982Z"/><path class="cls-2" d="M109.987,27.1381c-.2311,0-.4239-.0513-.579-.1545-.1554-.1032-.265-.2576-.3284-.4639l-.2867-.9392c-.2468,.2614-.5058,.4996-.7762,.7135-.2707,.2139-.5633,.398-.8776,.553-.3146,.1545-.6531,.2733-1.0152,.3565-.3623,.0832-.7545,.1248-1.1763,.1248-.6449,0-1.2422-.1426-1.7914-.4277-.5495-.2857-1.023-.6978-1.4212-1.2368s-.7106-1.199-.9373-1.98c-.227-.7804-.3404-1.6705-.3404-2.6691,0-.9198,.1272-1.7736,.3821-2.5627,.2547-.7885,.6148-1.4701,1.0808-2.0448,.4657-.5747,1.0249-1.0245,1.6777-1.3497s1.3734-.4877,2.1616-.4877c.6368,0,1.1763,.0934,1.6181,.2792,.4418,.1863,.8418,.4304,1.2001,.7313v-6.2423h3.7021V27.1381h-2.2928Zm-3.7498-2.6399c.2707,0,.5153-.0254,.7344-.0772,.2189-.0513,.4198-.1248,.6032-.2198,.1831-.0951,.3561-.2139,.5194-.3565,.163-.1431,.3244-.3095,.4836-.4996v-5.2318c-.2864-.3095-.591-.525-.9134-.6481-.3225-.1226-.6628-.1842-1.0211-.1842-.3423,0-.6569,.0675-.9433,.202-.2867,.135-.5356,.3505-.7464,.6481-.211,.297-.3762,.6837-.4958,1.159-.1193,.4758-.179,1.0505-.179,1.7245,0,.6497,.0477,1.1968,.1432,1.6408s.2289,.8026,.4,1.0758c.1711,.2738,.3762,.4699,.6151,.5887s.5055,.1782,.8001,.1782Z"/><path class="cls-2" d="M118.1737,11.7144c0,.2487-.0506,.4822-.1518,.7006-.1014,.2184-.2398,.4099-.4153,.5747s-.3797,.2958-.6124,.3934c-.2329,.0971-.4811,.1461-.7444,.1461-.2566,0-.496-.049-.7189-.1461-.2228-.0975-.4201-.2285-.5924-.3934s-.3072-.3563-.405-.5747c-.098-.2184-.1469-.452-.1469-.7006,0-.2555,.049-.4941,.1469-.7158,.0977-.2221,.2327-.4167,.405-.5848s.3695-.299,.5924-.3934c.2228-.0939,.4622-.141,.7189-.141,.2633,0,.5114,.0472,.7444,.141,.2327,.0943,.4369,.2253,.6124,.3934s.3139,.3627,.4153,.5848c.1012,.2216,.1518,.4602,.1518,.7158Zm-.0425,3.093v12.3307h-3.7021V14.8074h3.7021Z"/><path class="cls-2" d="M120.2804,27.1381V14.8074h2.2928c.2308,0,.4239,.0518,.5793,.155,.1551,.1032,.2644,.2576,.3282,.4634l.2151,.7135c.2389-.222,.4855-.4277,.7404-.6184,.2547-.1901,.5272-.3505,.818-.4812,.2905-.1307,.6051-.2339,.9435-.3095,.3382-.0751,.7062-.1129,1.1047-.1129,.6764,0,1.2758,.1172,1.7971,.3511,.5215,.2339,.9614,.5584,1.3197,.9749,.3583,.4159,.6289,.9117,.812,1.4863s.2747,1.199,.2747,1.8725v7.8361h-3.7021v-7.8361c0-.6022-.1394-1.0715-.4179-1.4085-.2788-.337-.6889-.5055-1.23-.5055-.4063,0-.7884,.0875-1.1464,.2614-.3583,.1744-.7008,.4083-1.0271,.7016v8.7872h-3.7021Z"/><path class="cls-2" d="M138.1454,14.5935c.5253,0,1.0208,.0518,1.4868,.1545,.4657,.1032,.8974,.2501,1.2956,.4402h3.7379v1.3437c0,.2063-.0578,.3683-.173,.4872-.1155,.1194-.3127,.2101-.5912,.2738l-.9075,.202c.1112,.357,.1671,.7253,.1671,1.1061,0,.6179-.1294,1.1731-.3881,1.6645s-.6132,.9095-1.0629,1.2541c-.4499,.3451-.9812,.6108-1.5942,.7972-.6132,.1863-1.2701,.2792-1.9704,.2792-.3903,0-.7567-.0238-1.0987-.0713-.2709,.1599-.406,.344-.406,.552s.1093,.3581,.3282,.4504c.2189,.0918,.5077,.1561,.866,.1917,.3583,.0362,.7681,.054,1.23,.054,.4616,0,.9316,.0221,1.4092,.0659s.9473,.1172,1.4092,.2209c.4616,.1032,.8717,.27,1.23,.5007s.6466,.539,.8657,.9246c.2189,.3856,.3284,.8766,.3284,1.4728,0,.5568-.1353,1.1012-.406,1.6343-.2707,.5325-.6688,1.0056-1.1942,1.4193-.5256,.4132-1.1703,.7453-1.9346,.9959s-1.6403,.3759-2.6272,.3759c-.9715,0-1.8093-.0918-2.5139-.2738-.7046-.1825-1.2899-.4229-1.7556-.7199-.4657-.2981-.8101-.6411-1.0331-1.0299s-.3344-.7934-.3344-1.2141c0-.5476,.1673-1.01,.5017-1.3869,.3344-.3764,.7919-.6724,1.3732-.8868-.2785-.182-.5015-.4153-.6685-.7005-.1673-.2846-.2509-.6449-.2509-1.0802,0-.182,.0317-.3737,.0955-.5757s.1633-.398,.2986-.5876c.1353-.1901,.3065-.3721,.5134-.5466,.2069-.1739,.454-.3284,.7404-.4629-.6447-.3408-1.1524-.7928-1.5226-1.3556s-.5552-1.2168-.5552-1.9616c0-.6184,.1313-1.1752,.3941-1.671,.2628-.4953,.6227-.9154,1.0808-1.26,.4575-.3451,.997-.6103,1.6181-.7972,.6211-.1858,1.2937-.2792,2.0184-.2792Zm2.7466,12.9696c0-.2025-.0618-.3646-.1852-.4855-.1234-.1215-.2905-.2187-.5015-.2916s-.4578-.1258-.7404-.1582c-.2826-.0319-.5872-.0486-.9134-.0486h-1.0152c-.3504,0-.6967-.0335-1.039-.101-.2311,.1593-.4201,.3359-.5671,.5304-.1475,.195-.221,.4153-.221,.6616,0,.175,.0377,.3338,.1134,.4769s.2091,.2663,.4,.3694c.1912,.1032,.448,.1847,.7702,.2447,.3225,.0594,.7304,.0891,1.2243,.0891,.5332,0,.9712-.0324,1.3135-.0972s.6151-.1534,.818-.2668c.2031-.1134,.3444-.249,.4242-.4072,.0795-.1577,.1193-.33,.1193-.5158Zm-2.7466-7.2382c.6129,0,1.0566-.1528,1.3314-.458s.412-.6994,.412-1.1828c0-.4996-.1372-.8922-.412-1.1774s-.7184-.4283-1.3314-.4283-1.0569,.1431-1.3317,.4283-.412,.6778-.412,1.1774c0,.2376,.0336,.4558,.1014,.654,.0675,.1982,.1733,.3705,.3165,.5169,.1432,.1469,.3244,.2619,.5432,.3451s.4798,.1248,.7824,.1248Z"/><path class="cls-2" d="M151.21,14.6173c.8196,0,1.5703,.1269,2.2505,.3808,.6813,.2538,1.266,.6222,1.7553,1.1056,.4904,.4839,.8722,1.0764,1.1467,1.778,.2745,.701,.4122,1.496,.4122,2.3839,0,.2776-.0119,.5034-.0358,.6778s-.0673,.3132-.1313,.4159c-.064,.1032-.1497,.1744-.2571,.2144-.1074,.0394-.2441,.0594-.4122,.0594h-7.1405c.1193,1.0305,.4337,1.7774,.9433,2.2414,.5093,.4634,1.1662,.6956,1.9701,.6956,.4301,0,.8006-.0518,1.1109-.155,.3103-.1026,.5864-.2177,.8294-.3446s.4665-.242,.6694-.3451c.2029-.1026,.4155-.1545,.639-.1545,.294,0,.5175,.1069,.6683,.3214l1.0751,1.3194c-.3819,.4364-.7941,.7907-1.2356,1.0645-.4426,.2733-.8961,.4872-1.3615,.6422-.4665,.1545-.9319,.2614-1.3973,.3208-.4659,.0594-.9096,.0891-1.3317,.0891-.8679,0-1.6821-.1404-2.442-.4218-.7605-.2814-1.4252-.6994-1.9942-1.2546-.5693-.5547-1.0192-1.2444-1.3496-2.0691-.3303-.8242-.4955-1.7834-.4955-2.8776,0-.8242,.141-1.6051,.4239-2.3423,.2823-.7372,.6886-1.3832,1.218-1.9378,.5294-.5552,1.1703-.9948,1.9226-1.32,.7523-.3251,1.6021-.4877,2.5497-.4877Zm.0716,2.5449c-.709,0-1.2622,.1998-1.6598,.6-.3981,.4007-.6609,.977-.7881,1.7304h4.6215c0-.2933-.038-.579-.1139-.856-.0754-.2776-.1985-.5255-.3699-.7432-.1714-.2182-.396-.3943-.6748-.5293s-.6167-.202-1.0149-.202Z"/><path class="cls-2" d="M158.0647,27.1381V14.8074h2.1974c.1828,0,.3363,.0162,.4594,.0475,.1237,.0319,.2273,.0816,.3108,.1491s.147,.1566,.1909,.2673c.0439,.1113,.0814,.2457,.1134,.4045l.2034,1.1531c.4535-.6972,.9628-1.2487,1.5286-1.6527,.5652-.4045,1.1819-.6065,1.8508-.6065,.5652,0,1.0192,.135,1.3615,.4045l-.4779,2.7107c-.032,.1669-.0955,.2835-.1909,.3511s-.2229,.101-.3819,.101c-.1356,0-.2951-.0178-.4779-.0535-.1833-.0356-.4139-.0535-.6927-.0535-.9715,0-1.7358,.5152-2.2928,1.5457v7.5623h-3.7021Z"/></g><path class="cls-4" d="M92.5445,11.6271c0,.2547-.052,.4936-.1553,.7158-.1036,.2227-.2445,.4156-.4237,.5787-.1789,.1631-.386,.2921-.6208,.388-.2348,.0954-.4874,.1431-.758,.1431-.2546,0-.4953-.0477-.7222-.1431-.2266-.0959-.4256-.2249-.5967-.388-.1713-.1631-.3085-.356-.4118-.5787-.1036-.2222-.1553-.4611-.1553-.7158,0-.2623,.0518-.5088,.1553-.7397,.1033-.2303,.2405-.4313,.4118-.6026,.1711-.1707,.37-.3056,.5967-.4053,.2269-.0992,.4676-.149,.7222-.149,.2706,0,.5232,.0499,.758,.149,.2348,.0997,.4419,.2346,.6208,.4053,.1792,.1712,.3202,.3723,.4237,.6026,.1033,.2308,.1553,.4774,.1553,.7397Z"/><path class="cls-4" d="M97.152,11.6271c0,.2547-.0499,.4936-.1491,.7158-.0998,.2227-.2369,.4156-.4121,.5787s-.3801,.2921-.6146,.388c-.2348,.0954-.4877,.1431-.758,.1431-.2627,0-.5094-.0477-.7401-.1431-.231-.0959-.434-.2249-.6089-.388-.1751-.1631-.3123-.356-.4118-.5787-.0995-.2222-.1491-.4611-.1491-.7158,0-.2623,.0496-.5088,.1491-.7397,.0995-.2303,.2367-.4313,.4118-.6026,.1749-.1707,.3779-.3056,.6089-.4053,.2307-.0992,.4774-.149,.7401-.149,.2703,0,.5232,.0499,.758,.149,.2345,.0997,.4394,.2346,.6146,.4053,.1751,.1712,.3123,.3723,.4121,.6026,.0992,.2308,.1491,.4774,.1491,.7397Z"/><g><path class="cls-1" d="M15.9175,8.875l-.0004,.0003c-.0212,.2338-.0326,.4681-.0317,.7028-.0002-.2346,.0107-.4693,.0321-.7032Z"/><path class="cls-1" d="M21.3072,27.7124l.0017-.0014c.0059-.128,.0115-.2561,.0108-.3863,.0008,.1308-.0065,.2591-.0125,.3878Z"/><path class="cls-1" d="M15.9265,10.3079c-.0276-.2359-.0403-.4729-.0413-.7099,.0017,.2374,.0125,.4746,.0401,.7108,.0004-.0003,.0008-.0005,.0011-.0009Z"/><path class="cls-1" d="M19.126,33.2529c.2957-.3886,.6683-.93,1.024-1.5924-.0005,.0003-.001,.0005-.0014,.0008-.3553,.6616-.7273,1.2024-1.0225,1.5916Z"/><path class="cls-1" d="M16.1123,7.6732c.08-.3471,.176-.6872,.2857-1.0176l-.0007,.0004c-.1098,.3307-.2069,.6709-.2869,1.0184,.0006-.0004,.0012-.0009,.0019-.0013Z"/><path class="cls-1" d="M21.1674,28.8778c-.0681,.348-.1563,.684-.2596,1.0068h.0002c.1034-.3233,.1925-.6592,.2607-1.0076-.0004,.0003-.0008,.0005-.0012,.0008Z"/><path class="cls-4" d="M28.1915,21.3103l-1.5267-9.0193c-.0627-.3703-.3199-.6815-.6712-.8122l-8.5533-3.1838c-.0375-.014-.0762-.0216-.1145-.0311,0,.0001,0,.0002,0,.0003-.0271,.1396-.0502,.2797-.0695,.42-.0017,.0129-.0032,.0259-.0048,.0389-.0179,.1351-.0325,.2703-.0422,.4053-.0006,.0084-.0005,.0167-.0011,.0251-.0138,.2093-.0131,.4177-.0051,.6251,.0019,.0456,.0028,.0913,.0059,.1367,.0018,.0276,.0084,.0542,.0106,.0817,.0136,.0022,.0274,.0021,.0408,.006l6.8343,1.9473c.4943,.1407,.8793,.5384,1.0052,1.0384l1.7349,6.9077c.1256,.5-.0256,1.0331-.3946,1.3918l-5.0991,4.9609c-.0326,.0318-.0702,.056-.1053,.0842,0,.0001,0,.0001,0,.0003,.0199,.1367,.0366,.2717,.0484,.4066,.0199,.1971,.0344,.3926,.0355,.5841,.0008,.1302-.0049,.2583-.0108,.3863l6.5168-5.4123c.2883-.2396,.4285-.6182,.3658-.9885Z"/><path class="cls-4" d="M20.3997,18.2012l-.8499-1.4832c-.039-.0675-.1112-.1094-.1887-.1095l-.5788-.0012s0,0,0,0c.1812,.6932,.366,1.3959,.5501,2.0939,.0943,.3569,.1887,.7147,.2827,1.0718l.0003,.0012,.7836-1.3542c.0391-.0669,.0391-.1509,.0006-.2189Z"/><path class="cls-4" d="M22.2483,19.0683l-.8948-3.3077c-.0409-.1504-.1599-.269-.3104-.3093l-2.7487-.7292c.0002,.0009,.0005,.0019,.0007,.0028,.1474,.5757,.3011,1.1689,.4584,1.7717l.6076,.0013c.1167-.0001,.2258,.0632,.2845,.1647l.8499,1.4837c.0584,.1021,.0581,.2284-.0008,.3295l-.8393,1.4508c.1446,.5496,.2882,1.0969,.4276,1.6325l.0008,.0032,2.0526-2.0703c.1096-.1112,.1524-.274,.1119-.4239Z"/><path class="cls-4" d="M24.0771,20.0786c.1577-.1592,.2193-.3936,.1605-.6106l-1.3648-5.0321c-.0588-.217-.2301-.3872-.4471-.445l-4.6214-1.2231c.0644,.2634,.1315,.5343,.2008,.8115,.0059,.0235,.0119,.0474,.0178,.071,.0672,.2684,.1363,.5421,.2079,.8228,.0003,.0011,.0006,.0023,.0009,.0034l2.8681,.7609c.2265,.0599,.4057,.2383,.467,.465l.8948,3.3077c.0616,.2262-.0029,.471-.1682,.6383h-.0003s-2.1446,2.1634-2.1446,2.1634c.0002,.0007,.0003,.0013,.0005,.002,.1582,.6096,.3102,1.2016,.4533,1.7673,.0005,.002,.001,.0041,.0015,.006l3.4733-3.5084Z"/><path class="cls-4" d="M26.2459,20.0454l-1.7349-6.9077c-.0728-.2895-.2957-.5202-.5821-.6019l-6.6167-1.8853c.1043,.4885,.2331,1.048,.381,1.6628,.0001,.0005,.0002,.0011,.0003,.0016l4.8365,1.28c.3578,.0949,.6402,.3762,.7372,.7338l1.3648,5.0321c.0969,.3582-.0046,.7441-.2652,1.0069l-3.6462,3.6836c.1411,.5639,.2709,1.0941,.3856,1.5793l4.9115-4.7784c.2136-.2083,.3013-.5171,.2283-.8067Z"/><path class="cls-4" d="M29.8114,23.5412l-.4145-11.2884c-.0164-.4475-.2717-.8558-.6664-1.0654l-9.9573-5.2842c-.1854-.0981-.39-.1468-.5938-.1456-.0049,0-.0096,.0016-.0144,.0021-.0089,.0194-.0178,.039-.0267,.0585-.1101,.2414-.2186,.4923-.3196,.7548-.0017,.0044-.0032,.009-.0049,.0134-.108,.2816-.2085,.5733-.2955,.8726,0,.0001,0,.0002,0,.0003,.0702,.0171,.14,.0367,.2085,.0623l8.5533,3.1838c.6256,.2332,1.084,.7876,1.1959,1.4476l1.5267,9.0193c.1119,.66-.1382,1.3351-.6524,1.7619l-7.0263,5.8355c-.0489,.0406-.1028,.0724-.1551,.1074-.0682,.3485-.1573,.6843-.2607,1.0075l8.317-5.2327c.378-.238,.6029-.6636,.5865-1.1106Z"/><path class="cls-4" d="M30.9141,9.9716l-.6007-.348-1.8832-1.0975L19.5137,3.3835l-.2462,.3733c-.034,.0521-.0724,.1119-.1143,.1785-.0838,.1333-.182,.2942-.2888,.4776-.0533,.0917-.1088,.189-.1657,.2913-.0002,.0003-.0004,.0006-.0005,.001,.2042,.0451,.4038,.1169,.5929,.2172l9.9573,5.2842c.7428,.394,1.2237,1.1624,1.2545,2.0049l.4145,11.2884c.0308,.8425-.3923,1.6438-1.1045,2.0924l-9.543,6.0042c-.0387,.0243-.0802,.0423-.1201,.064-.3557,.6624-.7283,1.2038-1.024,1.5924-.023,.0303-.0473,.0633-.0693,.0917,.1986-.0454,.3927-.1173,.5745-.2219l11.261-6.501c.645-.3715,1.0455-1.0659,1.0465-1.8122l.0159-13.0271c.0011-.7463-.3967-1.4361-1.0406-1.8109Z"/><path class="cls-2" d="M16.6096,18.1935c-.0391,.0674-.0391,.1514-.0006,.2195l.8499,1.4827c.039,.0675,.1112,.1099,.1887,.11l.6763,.0015v-.0005c-.0838-.3164-.1678-.6331-.2515-.9484l-.0114-.061c-.2-.7585-.4017-1.5234-.5984-2.2749-.0001-.0006-.0003-.0011-.0004-.0017l-.8526,1.4728Z"/><path class="cls-2" d="M9.0106,15.2958l1.5267,9.0187c.0627,.3703,.3199,.6815,.6712,.8122l8.5533,3.1838c.0558,.0208,.1138,.0285,.1713,.039,.0024-.0163,.0077-.0311,.01-.0475,.0209-.146,.0363-.2941,.0474-.4437,.0046-.0626,.0067-.1259,.0094-.189,.0047-.1052,.0064-.2112,.0058-.3179-.0006-.0732-.0014-.1464-.0046-.2202-.0047-.1087-.0145-.2185-.0253-.3284-.0065-.0659-.0163-.1325-.0245-.1987-.0031-.0003-.0063-.0004-.0094-.0013l-6.8343-1.9479c-.4943-.1407-.8793-.5384-1.0049-1.0379l-1.7352-6.9083c-.1251-.4995,.0259-1.0331,.3943-1.3918l5.0994-4.9604c.0194-.0189,.0437-.0303,.0642-.0478-.0277-.2362-.0385-.4734-.0401-.7108,0-.0066,.0003-.0132,.0003-.0198-.001-.2347,.0104-.469,.0317-.7028l-6.5404,5.4314c-.2886,.2396-.4288,.6187-.3661,.989Z"/><path class="cls-2" d="M12.9646,17.138l1.3648,5.0321c.0588,.2164,.2301,.3867,.4471,.4445l4.5365,1.2006c-.0003-.0012-.0006-.0024-.0009-.0035-.064-.2533-.13-.5125-.1974-.7754-.0041-.016-.0081-.0317-.0122-.0478-.0697-.2716-.141-.5476-.2136-.8271-.0005-.002-.001-.0038-.0015-.0057l-2.9426-.7807c-.2265-.0594-.4059-.2377-.4673-.4655l-.8948-3.3066c-.0613-.2273,.0035-.4721,.1687-.6383l2.1992-2.2192c-.0002-.001-.0005-.0019-.0007-.0028-.0707-.2763-.1384-.5444-.2053-.81-.0044-.0176-.009-.0356-.0134-.0532-.0685-.2725-.1341-.537-.1977-.7955l-3.4082,3.4437c-.158,.1597-.2196,.3936-.1608,.6106Z"/><path class="cls-2" d="M7.391,13.0643l.4143,11.2889c.0164,.4475,.2717,.8552,.6664,1.0648l9.9573,5.2842c.2111,.1118,.446,.1528,.6772,.1359,.0192-.0377,.0381-.0759,.0571-.1143,.106-.2153,.2099-.4367,.3032-.6735,.0018-.0044,.0036-.0086,.0053-.0131,.1093-.2787,.2077-.571,.2899-.8746l.0002-.0009c-.0966-.0192-.1927-.0428-.2865-.0779l-8.5533-3.1838c-.6259-.2332-1.084-.7876-1.1959-1.4476l-1.5267-9.0187c-.1117-.66,.1382-1.3351,.6524-1.7624l7.0263-5.835c.0733-.0609,.1515-.1136,.232-.1619,.08-.3475,.1771-.6877,.2869-1.0184L7.9772,11.9537c-.3781,.2374-.6026,.6636-.5862,1.1106Z"/><path class="cls-2" d="M14.796,17.5451l.8948,3.3066c.0409,.151,.1599,.2695,.3104,.3093l2.8226,.7489c-.0003-.0011-.0006-.0022-.0009-.0033-.1524-.585-.3096-1.1827-.468-1.7819-.0006-.0024-.0012-.0047-.0018-.007l-.7057-.0014c-.1167,.0001-.226-.0632-.2845-.1658l-.8499-1.4821c-.0582-.1026-.0581-.2289,.0005-.3306l.8562-1.4791c.0147-.0254,.0401-.0402,.0605-.0604-.1428-.5462-.2812-1.0805-.4155-1.6035l-2.1067,2.1259c-.1099,.1107-.1527,.2729-.1121,.4245Z"/><path class="cls-2" d="M10.9562,16.5601l1.7352,6.9083c.0725,.2895,.2954,.5196,.5818,.6014l6.5582,1.8692c-.0589-.2531-.1223-.5195-.1895-.7966-.0019-.0078-.0039-.016-.0058-.0239-.0663-.2734-.1361-.5567-.2091-.8491v-.0003s-4.7548-1.2584-4.7548-1.2584c-.3578-.0949-.6402-.3756-.7372-.7333l-1.3648-5.0321c-.0969-.3577,.0046-.7436,.2649-1.0069l3.5842-3.6213s0-.0001,0-.0002c-.1418-.5867-.2652-1.121-.3683-1.5975l-4.8664,4.7338c-.2134,.2083-.301,.5171-.2283,.8067Z"/><path class="cls-2" d="M17.9131,32.6834c.0089-.011,.0196-.025,.0288-.0364,.0501-.0624,.1026-.1288,.1592-.2033,.0078-.0103,.0165-.0224,.0244-.0329,.0605-.0802,.1234-.1655,.189-.2583,.0058-.0083,.012-.0175,.0178-.0258,.0509-.0724,.1037-.1515,.1566-.2309-.1988-.0454-.3935-.1149-.578-.2129l-9.9573-5.2842c-.7428-.394-1.2237-1.1624-1.2545-2.0044l-.4143-11.2889c-.0308-.8425,.392-1.6444,1.1042-2.0924l9.543-6.0042c.058-.0364,.1191-.0656,.1795-.0965,.0056-.0115,.0112-.0215,.0168-.0329,.0846-.1728,.1691-.3388,.2532-.4971,.0075-.0141,.0149-.0286,.0224-.0426,.0903-.1687,.1793-.3299,.2655-.4794,.0055-.0095,.0104-.0175,.0159-.027,.0717-.1238,.1405-.2392,.207-.3481,.033-.0542,.0635-.1035,.0949-.1538,.0131-.021,.0276-.0451,.0404-.0654-.1623,.0462-.3207,.1103-.4707,.1967L6.296,9.9638c-.6451,.3715-1.0455,1.0606-1.0466,1.8069l-.0104,13.0325c-.0011,.7463,.3913,1.4362,1.0353,1.8109l3.7502,2.1735c.1081,.0372,.2215,.0744,.3296,.1063l7.1766,4.2412,.2294-.2678c.045-.0523,.0967-.1141,.1532-.1838Z"/><path class="cls-3" d="M20.6023,23.5811c-.1431-.5657-.2951-1.1576-.4533-1.7673,.1582,.6096,.3102,1.2016,.4533,1.7673Z"/><path class="cls-3" d="M19.0564,33.3448s.0002,0,.0003-.0001c.022-.0284,.0463-.0614,.0693-.0917-.0231,.0304-.0475,.0634-.0696,.0919Z"/><path class="cls-3" d="M17.2124,9.9961c.0023,.0006,.0047,.0006,.0071,.001-.0023-.0275-.0088-.0541-.0106-.0817,.0018,.0268,.0012,.0539,.0035,.0807Z"/><path class="cls-3" d="M18.1629,5.76c-.0085,.0185-.0162,.0396-.0247,.0582,.0089-.0196,.0177-.0392,.0267-.0585-.0007,0-.0013,.0003-.002,.0003Z"/><path class="cls-3" d="M18.7532,16.4967h.0003c-.1574-.6028-.3111-1.196-.4584-1.7717,.1476,.5766,.3003,1.1674,.4581,1.7717Z"/><path class="cls-3" d="M19.9374,28.3505c.0024-.016,.0034-.0325,.0057-.0485-.0023,.0163-.0076,.0312-.01,.0475,.0015,.0003,.0029,.0007,.0043,.001Z"/><polygon class="cls-3" points="19.7621 29.1618 19.762 29.1618 19.7617 29.1627 19.7621 29.1618"/><path class="cls-3" d="M19.1117,30.8385c.0183-.0359,.0336-.078,.0516-.1146-.0189,.0384-.0379,.0766-.0571,.1143,.0018-.0001,.0037,.0005,.0055,.0003Z"/><path class="cls-3" d="M18.4917,31.8966c-.0009-.0002-.0018-.0006-.0027-.0008-.0529,.0794-.1057,.1585-.1566,.2309,.0524-.0742,.1048-.1485,.1593-.2301Z"/><path class="cls-3" d="M19.957,26.605c-.0019-.0005-.0038-.0007-.0058-.0008,.0082,.0663,.018,.1328,.0245,.1987-.0065-.0661-.0099-.1315-.0187-.198Z"/></g></g><text class="cls-6" transform="translate(52.6243 55.8942)"><tspan x="0" y="0">2D Sketcher</tspan></text></g></svg>