<?xml version="1.0" encoding="utf-8"?>
<!-- Generator: Adobe Illustrator 26.1.0, SVG Export Plug-In . SVG Version: 6.00 Build 0)  -->
<svg version="1.1" id="Layer_1" xmlns="http://www.w3.org/2000/svg" xmlns:xlink="http://www.w3.org/1999/xlink" x="0px" y="0px"
	 viewBox="0 0 30 32" style="enable-background:new 0 0 30 32;" xml:space="preserve">
<style type="text/css">
	.st0{fill:#E4E4E4;}
</style>
<g>
	<path class="st0" d="M10.1,28c-1,0-2.7-0.5-3.3-0.9c-0.4-0.3-0.5-1-0.2-1.4c0.4-0.5,2,0,2.4,0.1c0-0.1-1.3-2.9-0.7-3.6
		c0.5-0.7,1.3-0.5,3,0c0.2,0.1,0.4,0.1,0.6,0.2c-0.1-0.2-0.2-0.5-0.3-0.7c-1.2-3-1.6-4.4-0.8-5.1c0.9-0.7,2.1,0,3.8,1.1
		c0.1,0,0.1,0.1,0.2,0.1c-0.2-0.8-0.5-1.7-0.8-2.5c-1.3-4-1.5-4.8-0.8-5.4C14,9.1,15,9.6,19,12c0.6,0.3,1.3,0.7,1.9,1.1
		c-0.7-1.8-2-4.7-3.1-6.2c-0.3-0.4-1.4-1.5-0.9-2.2c0.3-0.4,1-0.5,1.4-0.2c1.9,1.5,4.9,8.5,5,10c0,0.4-0.1,0.7-0.3,0.9
		c-0.7,0.7-1.5,0.3-5.1-1.8c-0.9-0.5-2-1.1-2.9-1.6c0.2,0.8,0.5,1.8,0.8,2.6c1.3,4,1.5,4.8,0.9,5.5c-0.7,0.7-1.6,0.2-3.2-0.8
		c-0.3-0.2-0.6-0.4-0.9-0.6c0.2,0.7,0.6,1.6,0.8,2.2c0.8,2,1,2.5,0.7,3c-0.5,1-1.5,0.7-3.4,0.1c-0.1,0-0.2-0.1-0.3-0.1
		c0.1,0.3,0.2,0.5,0.3,0.7c0.6,1.7,0.7,2,0.6,2.5C11.2,27.6,10.6,28,10.1,28z M21.5,14.7L21.5,14.7L21.5,14.7z"/>
</g>
</svg>
