<?xml version="1.0" encoding="utf-8"?>
<!-- Generator: Adobe Illustrator 26.1.0, SVG Export Plug-In . SVG Version: 6.00 Build 0)  -->
<svg version="1.1" id="Layer_1" xmlns="http://www.w3.org/2000/svg" xmlns:xlink="http://www.w3.org/1999/xlink" x="0px" y="0px"
	 viewBox="0 0 30 32" style="enable-background:new 0 0 30 32;" xml:space="preserve">
<style type="text/css">
	.st0{fill:#E4E4E4;}
</style>
<g>
	<g>
		<rect x="15.4" y="3.4" transform="matrix(0.6917 -0.7222 0.7222 0.6917 -4.9526 16.5583)" class="st0" width="3" height="21.3"/>
	</g>
	<g>
		<path class="st0" d="M19.5,26.2l-2.2-2.1l2.1-2.2l2.2,2.1L19.5,26.2z M16.2,23.1L14.1,21l2.1-2.2l2.2,2.1L16.2,23.1z M13,20
			l-2.2-2.1l2.1-2.2l2.2,2.1L13,20z M9.8,16.9l-2.2-2.1l2.1-2.2l2.2,2.1L9.8,16.9z M6.5,13.8l-2.2-2.1l2.1-2.2l2.2,2.1L6.5,13.8z"/>
	</g>
</g>
</svg>
