<?xml version="1.0" encoding="utf-8"?>
<!-- Generator: Adobe Illustrator 26.1.0, SVG Export Plug-In . SVG Version: 6.00 Build 0)  -->
<svg version="1.1" id="Layer_1" xmlns="http://www.w3.org/2000/svg" xmlns:xlink="http://www.w3.org/1999/xlink" x="0px" y="0px"
	 viewBox="0 0 30 32" style="enable-background:new 0 0 30 32;" xml:space="preserve">
<style type="text/css">
	.st0{fill:#666666;}
</style>
<g>
	<polygon class="st0" points="8.6,20.5 7.9,21.6 9.7,23.4 10.8,22.6 	"/>
	<polygon class="st0" points="4.9,26.7 6,25.9 5.6,25.5 4.9,26.7 	"/>
	<polygon class="st0" points="10.1,18 9.4,19.1 12.1,21.7 13.2,21 	"/>
	<polygon class="st0" points="7.1,23 6.4,24.1 7.3,25 8.4,24.3 	"/>
	<polygon class="st0" points="14.6,10.4 13.9,11.5 19.3,16.7 20.3,16 	"/>
	<polygon class="st0" points="16.1,7.8 15.4,9 21.7,15.1 22.7,14.3 	"/>
	<polygon class="st0" points="17.6,5.3 16.9,6.4 24.1,13.4 25.1,12.7 	"/>
	<polygon class="st0" points="11.6,15.4 10.9,16.5 14.5,20 15.5,19.3 	"/>
	<polygon class="st0" points="13.1,12.9 12.4,14 16.9,18.4 17.9,17.6 	"/>
</g>
</svg>
