<?xml version="1.0" encoding="utf-8"?>
<!-- Generator: Adobe Illustrator 26.1.0, SVG Export Plug-In . SVG Version: 6.00 Build 0)  -->
<svg version="1.1" id="Layer_1" xmlns="http://www.w3.org/2000/svg" xmlns:xlink="http://www.w3.org/1999/xlink" x="0px" y="0px"
	 viewBox="0 0 30 32" style="enable-background:new 0 0 30 32;" xml:space="preserve">
<style type="text/css">
	.st0{fill:#D0E0BE;}
	.st1{fill:none;stroke:#FFFFFF;stroke-miterlimit:10;}
	.st2{fill:#E4E4E4;}
</style>
<g>
	<circle class="st0" cx="8" cy="14.8" r="4.2"/>
	<g>
		<line class="st1" x1="8" y1="12.8" x2="8" y2="16.8"/>
		<line class="st1" x1="10" y1="14.8" x2="6" y2="14.8"/>
	</g>
</g>
<path class="st2" d="M24.7,21.7c-1,0-2.1-0.4-2.2-0.7c0-0.2,0.1-0.9,0.2-1.3c0.3-1.1,0.6-2.5-0.3-3.6c-0.7-0.9-2.1-1.1-4.1-1.1
	c0.2-3-0.3-3.8-0.5-4.1c-0.8-1.2-2.2-1.1-2.9-1.1c-0.2,0-0.6,0-0.7,0c-0.2-0.2-0.3-1.4-0.1-2.4c0.2-0.8-0.3-1.6-1.1-1.8
	s-1.6,0.3-1.8,1.1c-0.4,1.4-0.6,4,0.9,5.4c1,0.9,2.1,0.8,2.9,0.7c0.1,0,0.2,0,0.3,0c0.1,0.5,0.1,1.5-0.1,3.1l-9.7,8.2l1.9,2.3
	l9.9-8.4c1.5-0.1,2.3,0,2.6,0.1c0,0.3-0.1,0.7-0.2,0.9c-0.2,1-0.5,2.2,0,3.2c0.9,2,3.6,2.5,5,2.5c0.8,0,1.5-0.7,1.5-1.5
	S25.5,21.7,24.7,21.7z"/>
</svg>
