<?xml version="1.0" encoding="UTF-8"?>
<svg id="Layer_1" data-name="Layer 1" xmlns="http://www.w3.org/2000/svg" viewBox="0 0 500 500">
  <defs>
    <style>
      .cls-1 {
        stroke: #000;
        stroke-miterlimit: 10;
      }

      .cls-1, .cls-2 {
        fill: #555;
      }
    </style>
  </defs>
  <path class="cls-1" d="M351.64,254.26l-128.15-116.47c-13.06-11.87-14.25-32.34-2.66-45.71l4.77-5.51c11.59-13.38,31.58-14.6,44.64-2.72l128.15,116.47c13.06,11.87,14.25,32.34,2.66,45.71l-4.77,5.51c-11.59,13.38-31.58,14.6-44.64,2.72Z"/>
  <path class="cls-1" d="M281.25,333.73l-127.54-115.63c-13-11.79-13.57-32.82-1.26-46.98l3.81-4.38c12.3-14.16,32.82-16.09,45.82-4.3l127.54,115.63c13,11.79,13.57,32.82,1.26,46.98l-3.81,4.38c-12.3,14.16-32.82,16.09-45.82,4.3Z"/>
  <path class="cls-1" d="M216.56,412.58l-130.06-118.42c-13.26-12.07-13.83-33.61-1.28-48.11h0c12.55-14.5,33.47-16.47,46.73-4.4l130.06,118.42c13.26,12.07,13.83,33.61,1.28,48.11h0c-12.55,14.5-33.47,16.47-46.73,4.4Z"/>
  <path class="cls-2" d="M395.12,174.24c-5.6-3.73-8.43-5.49-13.99-8.42-8.38-4.41-12.41-11.36-9.72-19.25,7.87-23.56,13.64-47.87,20.24-71.8,2.78-9.87,11.92-21.63,23.57-17.44,6.26,2.82,9.27,4.98,14.42,10.51,6.91,8.55,10.21,21.04,8.02,31.87-6.7,22.65-14.45,45-21.71,67.47-3.18,9.91-12.4,12.67-20.83,7.06Z"/>
  <path class="cls-2" d="M94.73,327.19c5.6,3.73,8.43,5.49,13.99,8.42,8.38,4.41,12.41,11.36,9.72,19.25-7.87,23.56-13.64,47.87-20.24,71.8-2.78,9.87-11.92,21.63-23.57,17.44-6.26-2.82-9.27-4.98-14.42-10.51-6.91-8.55-10.21-21.04-8.02-31.87,6.7-22.65,14.45-45,21.71-67.47,3.18-9.91,12.4-12.67,20.83-7.06Z"/>
</svg>