<?xml version="1.0" encoding="utf-8"?>
<!-- Generator: Adobe Illustrator 26.1.0, SVG Export Plug-In . SVG Version: 6.00 Build 0)  -->
<svg version="1.1" id="Layer_1" xmlns="http://www.w3.org/2000/svg" xmlns:xlink="http://www.w3.org/1999/xlink" x="0px" y="0px"
	 viewBox="0 0 31.8 31.9" style="enable-background:new 0 0 31.8 31.9;" xml:space="preserve">
<style type="text/css">
	.st0{fill:#FDE6E1;}
</style>
<g>
	<path class="st0" d="M21.3,21.1c0,0.9,0,1.8,0,1.9c-0.1,2.8-1.9,2.8-2.6,2.8h-4.8h-0.7c-2.4,0-2.8-1.8-2.8-2.8v-0.7v-1.2L21.3,21.1
		 M22.9,19.6H9v2.7V23c0.1,2,1.2,4.4,4.3,4.4H14h4.8c3.1,0,4.1-2.2,4.2-4.3C22.9,23,22.9,19.6,22.9,19.6L22.9,19.6z"/>
	<path class="st0" d="M22.1,4.5H9.7c-0.2,0-0.4,0.1-0.6,0.3S8.9,5.2,8.9,5.4v13h13.9v-13c0-0.2-0.1-0.5-0.2-0.7
		C22.5,4.6,22.3,4.5,22.1,4.5L22.1,4.5z"/>
</g>
</svg>
