<?xml version="1.0" encoding="utf-8"?>
<!-- Generator: Adobe Illustrator 26.1.0, SVG Export Plug-In . SVG Version: 6.00 Build 0)  -->
<svg version="1.1" id="Layer_1" xmlns="http://www.w3.org/2000/svg" xmlns:xlink="http://www.w3.org/1999/xlink" x="0px" y="0px"
	 viewBox="0 0 31.8 31.9" style="enable-background:new 0 0 31.8 31.9;" xml:space="preserve">
<style type="text/css">
	.st0{fill:#F3817F;}
</style>
<g>
	<path class="st0" d="M21.3,21.1c0,0.9,0,1.8,0,1.9c-0.1,2.8-1.9,2.8-2.6,2.8l-4.8,0l-0.7,0c-2.4,0-2.8-1.8-2.8-2.8l0-0.7l0-1.2
		L21.3,21.1 M22.9,19.6l-13.9,0l0,2.7l0,0.7c0.1,2,1.2,4.4,4.3,4.4l0.7,0l4.8,0c3.1,0,4.1-2.2,4.2-4.3C22.9,23,22.9,19.6,22.9,19.6
		L22.9,19.6z"/>
	<path class="st0" d="M22.1,4.5l-12.4,0c-0.2,0-0.4,0.1-0.6,0.3S8.9,5.2,8.9,5.4l0,13l13.9,0l0-13c0-0.2-0.1-0.5-0.2-0.7
		C22.5,4.6,22.3,4.5,22.1,4.5L22.1,4.5z"/>
</g>
</svg>
