<?xml version="1.0" encoding="utf-8"?>
<!-- Generator: Adobe Illustrator 26.1.0, SVG Export Plug-In . SVG Version: 6.00 Build 0)  -->
<svg version="1.1" id="Layer_1" xmlns="http://www.w3.org/2000/svg" xmlns:xlink="http://www.w3.org/1999/xlink" x="0px" y="0px"
	 viewBox="0 0 31.8 31.9" style="enable-background:new 0 0 31.8 31.9;" xml:space="preserve">
<style type="text/css">
	.st0{fill:#FDE6E1;}
</style>
<g>
	<g>
		<path class="st0" d="M22.2,4.5H9.8c-0.3,0-0.4,0.1-0.6,0.3S9,5.2,9,5.4v13.7h13.9V5.4c0-0.2,0-0.5-0.2-0.7
			C22.6,4.6,22.4,4.5,22.2,4.5L22.2,4.5z"/>
	</g>
	<path class="st0" d="M9,20.1c0,0,0,2.1,0,3.4c0,3.4,0.4,3.8,4.1,3.8l5.7,0c3.8,0,4.1-0.3,4.1-3.8c0-1.3,0-3.4,0-3.4L9,20.1z
		 M21.1,23.1c0,2.7,0,2.7-3,2.7l-4.5,0c-2.9,0-2.9,0-2.9-2.7c0-1,0-1.3,0-1.3l10.4,0C21.1,21.8,21.1,22.1,21.1,23.1z"/>
</g>
</svg>
