<?xml version="1.0" encoding="utf-8"?>
<!-- Generator: Adobe Illustrator 26.1.0, SVG Export Plug-In . SVG Version: 6.00 Build 0)  -->
<svg version="1.1" id="Layer_1" xmlns="http://www.w3.org/2000/svg" xmlns:xlink="http://www.w3.org/1999/xlink" x="0px" y="0px"
	 viewBox="0 0 50 25" style="enable-background:new 0 0 50 25;" xml:space="preserve">
<style type="text/css">
	.st0{fill:#666666;}
</style>
<g>
	<g>
		<path class="st0" d="M9.4,6.5h-3v-3h-4v13h10v-3v-1v-3h-3V6.5z M3.4,4.5h2v2h-2V4.5z M3.4,7.5h2v2h-2V7.5z M8.4,12.5h-2v-2h2V12.5
			z M3.4,10.5h2v2h-2V10.5z M5.4,15.5h-2v-2h2V15.5z M8.4,15.5h-2v-2h2V15.5z M11.4,15.5h-2v-2h2V15.5z M11.4,10.5v2h-2v-2H11.4z
			 M6.4,9.5v-2h2v2H6.4z"/>
		<path class="st0" d="M34.4,3.5v3h-12v3h-9v7h25v-3v-1v-2v-1v-2v-1v-3H34.4z M32.4,7.5h2v2h-2V7.5z M34.4,12.5h-2v-2h2V12.5z
			 M23.4,10.5h2v2h-2V10.5z M26.4,10.5h2v2h-2V10.5z M29.4,10.5h2v2h-2V10.5z M29.4,7.5h2v2h-2V7.5z M26.4,7.5h2v2h-2V7.5z
			 M23.4,7.5h2v2h-2V7.5z M20.4,10.5h2v2h-2V10.5z M17.4,10.5h2v2h-2V10.5z M14.4,10.5h2v2h-2V10.5z M16.4,15.5h-2v-2h2V15.5z
			 M19.4,15.5h-2v-2h2V15.5z M22.4,15.5h-2v-2h2V15.5z M25.4,15.5h-2v-2h2V15.5z M28.4,15.5h-2v-2h2V15.5z M31.4,15.5h-2v-2h2V15.5z
			 M34.4,15.5h-2v-2h2V15.5z M37.4,15.5h-2v-2h2V15.5z M37.4,12.5h-2v-2h2V12.5z M37.4,9.5h-2v-2h2V9.5z M35.4,6.5v-2h2v2H35.4z"/>
		<path class="st0" d="M13.4,17.5v4h22v-4H13.4z M16.4,20.5h-2v-2h2V20.5z M19.4,20.5h-2v-2h2V20.5z M22.4,20.5h-2v-2h2V20.5z
			 M25.4,20.5h-2v-2h2V20.5z M28.4,20.5h-2v-2h2V20.5z M31.4,20.5h-2v-2h2V20.5z M34.4,18.5v2h-2v-2H34.4z"/>
	</g>
	<polygon class="st0" points="47.6,14.5 43.8,20.4 40,14.5 	"/>
</g>
</svg>
