<?xml version="1.0" encoding="utf-8"?>
<!-- Generator: Adobe Illustrator 26.1.0, SVG Export Plug-In . SVG Version: 6.00 Build 0)  -->
<svg version="1.1" id="Layer_1" xmlns="http://www.w3.org/2000/svg" xmlns:xlink="http://www.w3.org/1999/xlink" x="0px" y="0px"
	 viewBox="0 0 30 32" style="enable-background:new 0 0 30 32;" xml:space="preserve">
<style type="text/css">
	.st0{fill:#666666;}
	.st1{fill:#D62823;}
</style>
<g>
	<g>
		<g>
			<path class="st0" d="M5.8,22v-7.7h-3v-1.8c0.4,0,0.8,0,1.2-0.1s0.7-0.2,1.1-0.4s0.6-0.4,0.8-0.7c0.2-0.3,0.4-0.7,0.4-1.1h1.9V22
				H5.8z"/>
		</g>
		<g>
			<path class="st0" d="M24.8,22v-7.7h-3v-1.8c0.4,0,0.8,0,1.2-0.1c0.4-0.1,0.7-0.2,1.1-0.4s0.6-0.4,0.8-0.7
				c0.2-0.3,0.4-0.7,0.4-1.1h1.9V22H24.8z"/>
		</g>
	</g>
	<polygon class="st0" points="21.8,16 15.9,12.6 15.9,14.6 9.8,14.6 9.8,17.4 15.9,17.4 15.9,19.4 	"/>
	<g>
		<polygon class="st1" points="9.2,19.9 16.7,10.1 19.4,12.1 11.9,21.9 		"/>
	</g>
</g>
</svg>
