<?xml version="1.0" encoding="utf-8"?>
<!-- Generator: Adobe Illustrator 26.1.0, SVG Export Plug-In . SVG Version: 6.00 Build 0)  -->
<svg version="1.1" id="Layer_1" xmlns="http://www.w3.org/2000/svg" xmlns:xlink="http://www.w3.org/1999/xlink" x="0px" y="0px"
	 viewBox="0 0 30 32" style="enable-background:new 0 0 30 32;" xml:space="preserve">
<style type="text/css">
	.st0{fill:#666666;}
</style>
<g>
	<g>
		<g>
			<path class="st0" d="M18.2,8.3l4.5,4.5v6.4l-4.5,4.5h-6.4l-4.5-4.5v-6.4l4.5-4.5L18.2,8.3 M19.3,5.5h-8.7l-6.2,6.2v8.7l6.2,6.2
				h8.7l6.2-6.2v-8.7L19.3,5.5L19.3,5.5z"/>
		</g>
	</g>
	<path class="st0" d="M16.5,15.3c0.5-0.4,0.8-0.9,0.8-1.5c0-1.1-1.1-2-2.4-2s-2.4,0.9-2.4,2c0,0.6,0.3,1.1,0.8,1.5
		c-0.9,0.5-1.5,1.3-1.5,2.2c0,1.4,1.4,2.6,3,2.6c1.5,0,3.3-0.9,3.3-2.6C18.1,16,16.9,15.5,16.5,15.3z M15,12.9c0.8,0,1.4,0.4,1.4,1
		s-0.6,1-1.4,1c-0.8,0-1.4-0.4-1.4-1S14.2,12.9,15,12.9z M15,19.1c-1.1,0-2-0.7-2-1.6s0.9-1.6,2-1.6s2,0.7,2,1.6S16.1,19.1,15,19.1z
		"/>
</g>
</svg>
