<?xml version="1.0" encoding="utf-8"?>
<!-- Generator: Adobe Illustrator 26.1.0, SVG Export Plug-In . SVG Version: 6.00 Build 0)  -->
<svg version="1.1" id="Layer_1" xmlns="http://www.w3.org/2000/svg" xmlns:xlink="http://www.w3.org/1999/xlink" x="0px" y="0px"
	 viewBox="0 0 30 32" style="enable-background:new 0 0 30 32;" xml:space="preserve">
<style type="text/css">
	.st0{fill:#666666;}
	.st1{fill:none;stroke:#666666;stroke-width:3;stroke-miterlimit:10;}
</style>
<g>
	<g>
		<g>
			<path class="st0" d="M17.3,14.5c-0.4,0.6-0.8,1.3-1.1,2.1c-0.4,0.7-0.6,1.4-0.8,2.4c-0.2,0.7-0.4,1.5-0.4,2.4h-1.2
				c0-0.8,0.2-1.5,0.4-2.4c0.2-0.7,0.5-1.4,0.8-2.2c0.4-0.7,0.7-1.3,1.1-2c0.5-0.6,0.8-1.2,1.3-1.6h-4.9v-1.1h6V13
				C18.1,13.2,17.6,13.8,17.3,14.5z"/>
		</g>
	</g>
	<polygon class="st1" points="14.9,5.1 23.9,9.4 26.1,19.1 20,27 10.1,27 3.9,19.1 5.8,9.4 	"/>
</g>
</svg>
