<?xml version="1.0" encoding="utf-8"?>
<!-- Generator: Adobe Illustrator 26.1.0, SVG Export Plug-In . SVG Version: 6.00 Build 0)  -->
<svg version="1.1" id="Layer_1" xmlns="http://www.w3.org/2000/svg" xmlns:xlink="http://www.w3.org/1999/xlink" x="0px" y="0px"
	 viewBox="0 0 30 32" style="enable-background:new 0 0 30 32;" xml:space="preserve">
<style type="text/css">
	.st0{fill:#E4E4E4;}
</style>
<g>
	<g>
		<path class="st0" d="M16.9,15.2c0.6-0.5,1-1.1,1-1.8c0-1.3-1.3-2.4-2.9-2.4s-3,1.1-3,2.4c0,0.7,0.4,1.3,1,1.8
			c-1.1,0.6-1.8,1.5-1.8,2.6c0,1.7,1.7,3.2,3.7,3.2c1.8,0,4-1.1,4-3.2C18.8,16.1,17.4,15.4,16.9,15.2z M15.2,12.4
			c1,0,1.7,0.5,1.7,1.2s-0.7,1.2-1.7,1.2s-1.7-0.5-1.7-1.2S14.1,12.4,15.2,12.4z M15.2,19.8c-1.3,0-2.4-0.8-2.4-1.9s1.1-1.9,2.4-1.9
			s2.4,0.8,2.4,1.9C17.6,19,16.5,19.8,15.2,19.8z"/>
	</g>
	<g>
		<path class="st0" d="M20.2,28.6H9.8l-7.4-7.4V10.8l7.4-7.4h10.4l7.4,7.4v10.4L20.2,28.6z M11,25.6h8l5.6-5.6v-8L19,6.4h-8L5.4,12
			v8L11,25.6z"/>
	</g>
</g>
</svg>
