<?xml version="1.0" encoding="utf-8"?>
<!-- Generator: Adobe Illustrator 26.1.0, SVG Export Plug-In . SVG Version: 6.00 Build 0)  -->
<svg version="1.1" id="Layer_1" xmlns="http://www.w3.org/2000/svg" xmlns:xlink="http://www.w3.org/1999/xlink" x="0px" y="0px"
	 viewBox="0 0 30 32" style="enable-background:new 0 0 30 32;" xml:space="preserve">
<style type="text/css">
	.st0{fill:#EEEEEE;}
</style>
<g>
	<g>
		<path class="st0" d="M17,14.9c-0.3,0.5-0.7,1.1-0.9,1.8c-0.3,0.6-0.5,1.2-0.7,2c-0.2,0.6-0.3,1.3-0.3,2h-1c0-0.7,0.2-1.3,0.3-2
			c0.2-0.6,0.4-1.2,0.7-1.9c0.3-0.6,0.6-1.1,0.9-1.7c0.4-0.5,0.7-1,1.1-1.4h-4.2v-0.9H18v0.8C17.7,13.8,17.3,14.3,17,14.9z"/>
	</g>
	<g>
		<path class="st0" d="M15,8.4l6.4,3.1l1.6,6.9L18.7,24h-7.1l-4.4-5.6l1.4-6.9L15,8.4 M15.1,5.2L6.3,9.5L4,19.1l6.1,7.6h9.8l6.1-7.6
			l-2.2-9.6L15.1,5.2L15.1,5.2z"/>
	</g>
</g>
</svg>
