<?xml version="1.0" encoding="utf-8"?>
<!-- Generator: Adobe Illustrator 26.1.0, SVG Export Plug-In . SVG Version: 6.00 Build 0)  -->
<svg version="1.1" id="Layer_1" xmlns="http://www.w3.org/2000/svg" xmlns:xlink="http://www.w3.org/1999/xlink" x="0px" y="0px"
	 viewBox="0 0 30 32" style="enable-background:new 0 0 30 32;" xml:space="preserve">
<style type="text/css">
	.st0{fill:#666666;}
</style>
<g>
	<g>
		<path class="st0" d="M16.9,14.9c-0.3,0.5-0.7,1.1-0.9,1.7c-0.3,0.6-0.5,1.2-0.7,1.9c-0.2,0.6-0.3,1.3-0.3,1.9h-1
			c0-0.7,0.2-1.3,0.3-1.9c0.2-0.6,0.4-1.2,0.7-1.8c0.3-0.6,0.6-1.1,0.9-1.6c0.4-0.5,0.7-1,1.1-1.4h-4.1v-0.9h5v0.8
			C17.6,13.9,17.2,14.4,16.9,14.9z"/>
	</g>
	<g>
		<path class="st0" d="M15,8.9l6,2.9l1.5,6.5l-4.1,5.2h-6.6l-4.1-5.2L9,11.8L15,8.9 M15,5.6L6.5,9.7L4.3,19l5.9,7.4h9.5l5.9-7.4
			l-2.1-9.3L15,5.6L15,5.6z"/>
	</g>
</g>
</svg>
