<?xml version="1.0" encoding="utf-8"?>
<!-- Generator: Adobe Illustrator 26.1.0, SVG Export Plug-In . SVG Version: 6.00 Build 0)  -->
<svg version="1.1" id="Layer_1" xmlns="http://www.w3.org/2000/svg" xmlns:xlink="http://www.w3.org/1999/xlink" x="0px" y="0px"
	 viewBox="0 0 31.8 31.9" style="enable-background:new 0 0 31.8 31.9;" xml:space="preserve">
<style type="text/css">
	.st0{fill:#E4E4E4;}
</style>
<g>
	<path class="st0" d="M29.6,9.4h-3c-0.3-3.5-3.1-6.5-4.9-7c-4.9-1.2-8.7,1-11.2,3c0,0,7.2-2.9,10-0.2c1.4,1.3,1.7,2.9,2,4.2h-3.1
		l5.6,5.9L29.6,9.4z"/>
	<g>
		<polygon class="st0" points="16.7,25.4 12.9,30.7 9.1,25.4 		"/>
		<polygon class="st0" points="9.1,14.6 12.9,9.3 16.7,14.6 		"/>
		<polygon class="st0" points="18.3,16.1 23.6,20 18.3,23.7 		"/>
		<polygon class="st0" points="7.5,23.7 2.2,20 7.5,16.1 		"/>
		<circle class="st0" cx="12.9" cy="19.9" r="2.4"/>
	</g>
</g>
</svg>
