<?xml version="1.0" encoding="utf-8"?>
<!-- Generator: Adobe Illustrator 26.1.0, SVG Export Plug-In . SVG Version: 6.00 Build 0)  -->
<svg version="1.1" id="Layer_1" xmlns="http://www.w3.org/2000/svg" xmlns:xlink="http://www.w3.org/1999/xlink" x="0px" y="0px"
	 viewBox="0 0 31.8 31.9" style="enable-background:new 0 0 31.8 31.9;" xml:space="preserve">
<style type="text/css">
	.st0{fill:#666666;}
</style>
<g>
	<g>
		<path class="st0" d="M21.8,27.7h-4.7v-3h4.7V27.7z M14.7,27.7H10v-3h4.7V27.7z"/>
	</g>
	<g>
		<path class="st0" d="M7.2,21.8h-3v-4.7h3V21.8z M7.2,14.8h-3v-4.7h3V14.8z"/>
	</g>
	<g>
		<rect x="4.2" y="4.2" class="st0" width="3.5" height="3.5"/>
	</g>
	<g>
		<rect x="4.2" y="24.2" class="st0" width="3.5" height="3.5"/>
	</g>
	<g>
		<rect x="24.1" y="24.2" class="st0" width="3.5" height="3.5"/>
	</g>
	<g>
		<rect x="24.1" y="4.2" class="st0" width="3.5" height="3.5"/>
	</g>
	<g>
		<path class="st0" d="M21.8,7.2h-4.7v-3h4.7V7.2z M14.7,7.2H10v-3h4.7V7.2z"/>
	</g>
	<g>
		<path class="st0" d="M27.6,21.8h-3v-4.7h3V21.8z M27.6,14.8h-3v-4.7h3V14.8z"/>
	</g>
</g>
</svg>
