<?xml version="1.0" encoding="utf-8"?>
<!-- Generator: Adobe Illustrator 26.1.0, SVG Export Plug-In . SVG Version: 6.00 Build 0)  -->
<svg version="1.1" id="Layer_1" xmlns="http://www.w3.org/2000/svg" xmlns:xlink="http://www.w3.org/1999/xlink" x="0px" y="0px"
	 viewBox="0 0 31.8 31.9" style="enable-background:new 0 0 31.8 31.9;" xml:space="preserve">
<style type="text/css">
	.st0{fill:#E4E4E4;}
</style>
<g>
	<path class="st0" d="M20.8,26.4c-0.9,0-1.9-0.2-2.8-0.7l1.3-2.7c0.5,0.2,1,0.4,1.5,0.4c0.2,0,0.4,0,0.5,0l0.5,3
		c-0.3,0-0.5,0.1-0.8,0.1L20.8,26.4z M24.1,25.6l-1.4-2.7c0.7-0.4,1.3-0.9,1.9-1.5l2.3,1.9C26.2,24.3,25.2,25,24.1,25.6z M16,24.4
		c-0.9-0.9-1.6-2-2-3.2l2.9-0.9c0.2,0.7,0.6,1.3,1.2,1.9L16,24.4z M28.2,21.3l-2.7-1.2c0.3-0.7,0.5-1.5,0.5-2.3h3
		C28.9,19,28.7,20.2,28.2,21.3z M16.7,19l-3-0.4c0.2-1.3,0.7-2.4,1.6-3.5l2.2,2C17.1,17.7,16.8,18.4,16.7,19z M25.8,16.1
		c-0.1-0.4-0.2-0.9-0.4-1.3c-0.1-0.4-0.3-0.7-0.5-1l2.6-1.5c0.3,0.5,0.5,1,0.7,1.5c0.2,0.6,0.4,1.2,0.5,1.7L25.8,16.1z M18.9,16.1
		l-1.7-2.5c0.6-0.4,1.4-0.8,2.2-1.2l1.2,2.7C19.9,15.4,19.4,15.7,18.9,16.1z M23.9,12.4c-0.6-0.6-1.2-1.2-2-1.7l1.6-2.5
		c1,0.6,1.9,1.4,2.6,2.2L23.9,12.4z M4.4,10.9L2.9,8.3c0.9-0.5,1.9-1,2.9-1.4l1.1,2.8C6,10,5.2,10.4,4.4,10.9z M20.3,9.9
		c-0.8-0.4-1.7-0.7-2.6-0.9l0.7-2.9c1.1,0.3,2.1,0.6,3.1,1.1L20.3,9.9z M8.6,9.1L7.8,6.2c1-0.3,2.1-0.5,3.2-0.6l0.3,3
		C10.4,8.7,9.5,8.9,8.6,9.1z M16,8.6c-0.8-0.1-1.7-0.2-2.5-0.2h-0.2v-3h0.3c1,0,2,0.1,3,0.2L16,8.6z"/>
</g>
</svg>
