<?xml version="1.0" encoding="UTF-8"?>
<svg id="Layer_1" xmlns="http://www.w3.org/2000/svg" version="1.1" viewBox="0 0 31.8 31.9">
  <!-- Generator: Adobe Illustrator 29.7.1, SVG Export Plug-In . SVG Version: 2.1.1 Build 8)  -->
  <defs>
    <style>
      .st0 {
        fill: #666;
      }
    </style>
  </defs>
  <path class="st0" d="M20.8,26.7h-4.7v-3h4.7v3ZM13.7,26.7h-4.7v-3h4.7v3Z"/>
  <path class="st0" d="M6.2,20.8h-3v-4.7h3v4.7ZM6.2,13.8h-3v-4.7h3v4.7Z"/>
  <rect class="st0" x="3.2" y="3.2" width="3.5" height="3.5"/>
  <rect class="st0" x="3.2" y="23.2" width="3.5" height="3.5"/>
  <rect class="st0" x="23.1" y="23.2" width="3.5" height="3.5"/>
  <rect class="st0" x="23.1" y="3.2" width="3.5" height="3.5"/>
  <path class="st0" d="M20.8,6.2h-4.7v-3h4.7v3ZM13.7,6.2h-4.7v-3h4.7v3Z"/>
  <path class="st0" d="M26.6,20.8h-3v-4.7h3v4.7ZM26.6,13.8h-3v-4.7h3v4.7Z"/>
</svg>