<?xml version="1.0" encoding="UTF-8"?>
<svg id="Layer_1" xmlns="http://www.w3.org/2000/svg" version="1.1" viewBox="0 0 31.8 31.9">
  <!-- Generator: Adobe Illustrator 29.7.1, SVG Export Plug-In . SVG Version: 2.1.1 Build 8)  -->
  <defs>
    <style>
      .st0 {
        fill: #666;
      }
    </style>
  </defs>
  <path class="st0" d="M21.5,25.9h-3v-3h3v3ZM11.2,25.9h-3v-3h3v3Z"/>
  <path class="st0" d="M6.3,21h-3v-3h3v3ZM6.3,11h-3v-3h3v3Z"/>
  <rect class="st0" x="3.3" y="13" width="3" height="3"/>
  <rect class="st0" x="23.5" y="13" width="3" height="3"/>
  <rect class="st0" x="3.3" y="3.1" width="3" height="3"/>
  <rect class="st0" x="13.4" y="3.1" width="3" height="3"/>
  <rect class="st0" x="13.4" y="22.9" width="3" height="3"/>
  <rect class="st0" x="3.3" y="22.9" width="3" height="3"/>
  <rect class="st0" x="23.5" y="22.9" width="3" height="3"/>
  <rect class="st0" x="23.5" y="3.1" width="3" height="3"/>
  <path class="st0" d="M21.5,6.1h-3v-3h3v3ZM11.2,6.1h-3v-3h3v3Z"/>
  <path class="st0" d="M26.5,21h-3v-3h3v3ZM26.5,11h-3v-3h3v3Z"/>
</svg>