<?xml version="1.0" encoding="UTF-8"?>
<svg id="Logo" xmlns="http://www.w3.org/2000/svg" xmlns:xlink="http://www.w3.org/1999/xlink" viewBox="0 0 130.18 130.18">
  <defs>
    <style>
      .cls-1 {
        fill: url(#linear-gradient-2);
      }

      .cls-2 {
        fill: url(#linear-gradient);
      }

      .cls-3 {
        fill: #13132e;
      }

      .cls-4 {
        fill: #fff;
      }
    </style>
    <linearGradient id="linear-gradient" x1="80.71" y1="73.81" x2="61.66" y2="59.66" gradientUnits="userSpaceOnUse">
      <stop offset="0" stop-color="#f93838"/>
      <stop offset="1" stop-color="#f79678"/>
    </linearGradient>
    <linearGradient id="linear-gradient-2" x1="44.07" y1="103.42" x2="69.94" y2="103.42" gradientUnits="userSpaceOnUse">
      <stop offset="0" stop-color="#f79966"/>
      <stop offset=".19" stop-color="#f89274" stop-opacity=".79"/>
      <stop offset=".59" stop-color="#fc8692" stop-opacity=".37"/>
      <stop offset=".87" stop-color="#fe7ea4" stop-opacity=".1"/>
      <stop offset="1" stop-color="#ff7bac" stop-opacity="0"/>
    </linearGradient>
  </defs>
  <path class="cls-3" d="M107.86-.04h-.01s-85.53.01-85.53.01C9.99-.03,0,9.96,0,22.28v85.53c0,12.33,9.99,22.33,22.33,22.33h85.53c12.33,0,22.32-9.99,22.32-22.33V22.28C130.18,9.96,120.19-.04,107.86-.04Z"/>
  <g>
    <path class="cls-4" d="M112.3,91.73l-21.66-10.51c-1.22-.59-2.56-.9-3.92-.9h-6.42l-2.83,3.62h9.77c.47,0,.93.11,1.35.31l16.69,8.1c.36.17.36.68,0,.86l-15.93,7.73c-.92.45-1.92.68-2.94.68h-41.43s-.09-.01-.13-.03l1.3.56c-.99-.48-2.15-.38-3.04.26-.86.62-.74,1.92.21,2.38l.71.41s.09.03.13.03h43.01c1.07,0,2.13-.24,3.1-.71l22.05-10.7c.87-.42.87-1.67,0-2.09Z"/>
    <path class="cls-4" d="M45.01,83.94h.55l.13-3.62h-1.25c-.17,0-.49.04-.71.16-5.67,3.07-23.21,11.26-23.21,11.26-.84.41-.88,1.63-.04,2.04,1.28.64,2.77.64,4.05.02l4.65-2.25h0s15.61-7.58,15.61-7.58c.06-.03.14-.05.21-.05Z"/>
  </g>
  <path class="cls-2" d="M99.68,30.61c-2.5-4.75-8.43-8.48-13.79-8.69-3.52-.14-6.42,1.3-8.14,4.03l-6.87,10.89h0s0,.01,0,.01l-26.11,41.41c-.13.2-.19.41-.21.63,0,.02-.01.03-.02.05l-2.09,24.66c-.05.56.22,1.1.7,1.4.34.22.75.28,1.14.19.15-.03.3-.09.43-.17l21.34-12.52s.02-.03.04-.04c.18-.12.35-.26.48-.46l32.98-52.32c1.72-2.74,1.77-5.96.13-9.08h0ZM79.59,35.88l-25.21,40c-1.11-.32-2.21-.51-3.26-.55-.32-.01-.63,0-.93,0l23.26-36.89c1.38-2.17,3.68-2.84,6.15-2.57h0ZM85.38,38.02c.88.56,1.67,1.21,2.39,1.89l-25.39,40.28c-1.54-1.28-3.3-2.39-5.13-3.23l25.4-40.3c.94.36,1.86.82,2.72,1.36h0ZM55.59,93.79c-.65-1.25-1.81-2.45-3.25-3.35-1.98-1.25-3.97-1.68-5.62-1.38l.8-9.45c.71-.89,1.88-1.31,3.47-1.26,4.49.17,10.73,4.1,12.82,8.08.74,1.42.87,2.65.37,3.68l-8.17,4.8c-.1-.37-.24-.74-.43-1.11h0ZM66.5,85.02c-.48-.92-1.13-1.83-1.89-2.69l25.19-39.96c.19.31.4.62.54.93.95,2.05.89,3.96-.2,5.68l-23.25,36.89c-.12-.28-.24-.56-.39-.84h0ZM90.94,38.83"/>
  <polygon class="cls-1" points="50.43 101.58 69.92 101.6 69.94 105.27 44.07 105.23 50.43 101.58"/>
</svg>