<?xml version="1.0" encoding="UTF-8"?>
<svg xmlns="http://www.w3.org/2000/svg" viewBox="0 0 477.34 130.18">
  <defs>
    <style>
      .cls-1 {
        fill: #fff;
      }
    </style>
  </defs>
  <g id="Logo">
    <g>
      <path class="cls-1" d="M189.9,48.46c-.43.69-.88,1.2-1.35,1.55-.47.34-1.08.52-1.83.52-.66,0-1.37-.21-2.13-.62-.76-.42-1.62-.88-2.58-1.4-.96-.52-2.06-.98-3.29-1.4-1.23-.42-2.64-.62-4.21-.62-2.72,0-4.75.58-6.08,1.74s-2,2.73-2,4.71c0,1.26.4,2.31,1.2,3.14.8.83,1.86,1.55,3.16,2.15,1.3.6,2.79,1.15,4.47,1.66,1.68.5,3.39,1.06,5.14,1.68,1.75.62,3.46,1.34,5.14,2.17,1.68.83,3.17,1.89,4.47,3.18,1.3,1.29,2.36,2.86,3.16,4.71.8,1.85,1.2,4.08,1.2,6.69,0,2.9-.5,5.6-1.5,8.13-1,2.52-2.46,4.72-4.36,6.6-1.91,1.88-4.26,3.35-7.05,4.43-2.79,1.08-5.97,1.61-9.52,1.61-1.95,0-3.93-.2-5.96-.6s-3.98-.97-5.87-1.7c-1.89-.73-3.67-1.6-5.33-2.6-1.66-1-3.11-2.12-4.34-3.35l4.3-6.79c.32-.52.76-.93,1.33-1.25.57-.31,1.19-.47,1.85-.47.86,0,1.73.27,2.6.82.87.54,1.86,1.15,2.97,1.81,1.1.66,2.37,1.26,3.81,1.81,1.43.54,3.12.82,5.07.82,2.64,0,4.69-.58,6.15-1.74s2.19-3,2.19-5.53c0-1.46-.4-2.65-1.2-3.57-.8-.92-1.86-1.68-3.16-2.28-1.3-.6-2.79-1.13-4.45-1.59-1.66-.46-3.37-.97-5.12-1.53-1.75-.56-3.45-1.25-5.12-2.06-1.66-.82-3.15-1.89-4.45-3.22-1.3-1.33-2.36-3-3.16-4.99-.8-1.99-1.2-4.45-1.2-7.37,0-2.35.47-4.64,1.42-6.88.95-2.24,2.34-4.23,4.17-5.98,1.83-1.75,4.08-3.15,6.75-4.19,2.67-1.05,5.72-1.57,9.16-1.57,1.92,0,3.79.15,5.61.45,1.82.3,3.55.75,5.18,1.33,1.63.59,3.16,1.29,4.58,2.11,1.42.82,2.69,1.74,3.81,2.77l-3.61,6.75Z"/>
      <path class="cls-1" d="M213.21,34.01v36.08h1.98c.83,0,1.47-.11,1.91-.34.44-.23.87-.65,1.27-1.25l8.43-12.56c.49-.75,1.07-1.29,1.74-1.63.67-.34,1.53-.52,2.56-.52h12.21l-11.52,15.87c-.54.75-1.14,1.4-1.78,1.98-.65.57-1.34,1.09-2.09,1.55,1.29.98,2.41,2.26,3.35,3.87l12.56,21.33h-12.04c-1,0-1.87-.17-2.6-.49s-1.33-.91-1.78-1.74l-8.43-15.78c-.4-.72-.82-1.18-1.25-1.4-.43-.22-1.07-.32-1.94-.32h-2.58v19.74h-13.33V34.01h13.33Z"/>
      <path class="cls-1" d="M264.2,53.1c2.95,0,5.65.46,8.11,1.38,2.45.92,4.56,2.25,6.32,4,1.76,1.75,3.14,3.89,4.13,6.43.99,2.54,1.48,5.41,1.48,8.62,0,1-.04,1.82-.13,2.45-.09.63-.24,1.13-.47,1.5-.23.37-.54.63-.92.77-.39.14-.88.21-1.48.21h-25.71c.43,3.73,1.56,6.43,3.4,8.11,1.83,1.68,4.2,2.52,7.1,2.52,1.55,0,2.88-.19,4-.56,1.12-.37,2.11-.79,2.99-1.25.87-.46,1.68-.87,2.41-1.25.73-.37,1.5-.56,2.3-.56,1.06,0,1.86.39,2.41,1.16l3.87,4.77c-1.38,1.58-2.86,2.86-4.45,3.85-1.59.99-3.23,1.76-4.9,2.32-1.68.56-3.35.95-5.03,1.16-1.68.21-3.28.32-4.79.32-3.12,0-6.06-.51-8.79-1.53-2.74-1.02-5.13-2.53-7.18-4.54-2.05-2.01-3.67-4.5-4.86-7.48-1.19-2.98-1.78-6.45-1.78-10.41,0-2.98.51-5.81,1.53-8.47,1.02-2.67,2.48-5,4.39-7.01,1.91-2.01,4.21-3.6,6.92-4.77s5.77-1.76,9.18-1.76ZM264.46,62.31c-2.55,0-4.54.72-5.98,2.17-1.43,1.45-2.38,3.53-2.84,6.26h16.64c0-1.06-.14-2.09-.41-3.1-.27-1-.72-1.9-1.33-2.69-.62-.79-1.43-1.43-2.43-1.91-1-.49-2.22-.73-3.66-.73Z"/>
      <path class="cls-1" d="M304.11,99.07c-2.12,0-3.99-.31-5.61-.92-1.62-.62-2.98-1.49-4.08-2.62-1.1-1.13-1.94-2.5-2.52-4.11-.57-1.61-.86-3.4-.86-5.38v-23.05h-3.78c-.69,0-1.28-.22-1.76-.67-.49-.44-.73-1.1-.73-1.96v-5.2l7.1-1.38,2.62-10.88c.34-1.38,1.32-2.06,2.92-2.06h6.97v13.03h10.84v9.12h-10.84v22.14c0,1.03.25,1.89.75,2.56.5.67,1.23,1.01,2.17,1.01.49,0,.9-.05,1.23-.15.33-.1.62-.21.86-.34.24-.13.47-.24.69-.34.21-.1.47-.15.75-.15.4,0,.72.09.97.28.24.19.49.48.75.88l4.04,6.32c-1.72,1.29-3.66,2.26-5.81,2.9-2.15.64-4.37.97-6.67.97Z"/>
      <path class="cls-1" d="M351.58,64.37c-.4.49-.79.87-1.16,1.16-.37.29-.9.43-1.59.43s-1.25-.16-1.78-.47c-.53-.32-1.13-.67-1.78-1.05-.66-.39-1.43-.74-2.32-1.05-.89-.32-1.99-.47-3.31-.47-1.63,0-3.05.3-4.24.9-1.19.6-2.17,1.46-2.95,2.58s-1.35,2.49-1.72,4.11c-.37,1.62-.56,3.45-.56,5.48,0,4.27.82,7.55,2.47,9.85s3.92,3.44,6.82,3.44c1.55,0,2.77-.19,3.68-.58.9-.39,1.67-.82,2.3-1.29.63-.47,1.21-.91,1.74-1.31.53-.4,1.2-.6,2-.6,1.06,0,1.86.39,2.41,1.16l3.87,4.77c-1.38,1.58-2.82,2.86-4.34,3.85-1.52.99-3.07,1.76-4.67,2.32-1.59.56-3.19.95-4.79,1.16-1.61.21-3.17.32-4.69.32-2.72,0-5.33-.52-7.8-1.55-2.48-1.03-4.66-2.53-6.54-4.49-1.88-1.96-3.37-4.38-4.47-7.25-1.1-2.87-1.66-6.13-1.66-9.8,0-3.21.48-6.21,1.44-9.01s2.38-5.22,4.26-7.27c1.88-2.05,4.2-3.66,6.97-4.84,2.77-1.18,5.97-1.76,9.61-1.76s6.56.56,9.2,1.68c2.64,1.12,5.02,2.75,7.14,4.9l-3.53,4.69Z"/>
      <path class="cls-1" d="M357.77,98.38V34.01h13.33v23.69c1.6-1.38,3.35-2.49,5.22-3.33,1.88-.84,4.12-1.27,6.73-1.27,2.44,0,4.59.42,6.47,1.27,1.88.85,3.46,2.02,4.75,3.53s2.26,3.3,2.92,5.38c.66,2.08.99,4.34.99,6.77v28.34h-13.33v-28.34c0-2.18-.5-3.88-1.5-5.1-1-1.22-2.48-1.83-4.43-1.83-1.46,0-2.84.32-4.13.95-1.29.63-2.52,1.48-3.7,2.54v31.78h-13.33Z"/>
      <path class="cls-1" d="M423.3,53.1c2.95,0,5.65.46,8.11,1.38,2.45.92,4.56,2.25,6.32,4,1.76,1.75,3.14,3.89,4.13,6.43.99,2.54,1.48,5.41,1.48,8.62,0,1-.04,1.82-.13,2.45-.09.63-.24,1.13-.47,1.5-.23.37-.54.63-.92.77-.39.14-.88.21-1.48.21h-25.71c.43,3.73,1.56,6.43,3.4,8.11,1.83,1.68,4.2,2.52,7.1,2.52,1.55,0,2.88-.19,4-.56,1.12-.37,2.11-.79,2.99-1.25.87-.46,1.68-.87,2.41-1.25.73-.37,1.5-.56,2.3-.56,1.06,0,1.86.39,2.41,1.16l3.87,4.77c-1.38,1.58-2.86,2.86-4.45,3.85-1.59.99-3.23,1.76-4.9,2.32-1.68.56-3.35.95-5.03,1.16-1.68.21-3.28.32-4.79.32-3.12,0-6.06-.51-8.79-1.53-2.74-1.02-5.13-2.53-7.18-4.54-2.05-2.01-3.67-4.5-4.86-7.48-1.19-2.98-1.78-6.45-1.78-10.41,0-2.98.51-5.81,1.53-8.47,1.02-2.67,2.48-5,4.39-7.01,1.91-2.01,4.21-3.6,6.92-4.77s5.77-1.76,9.18-1.76ZM423.56,62.31c-2.55,0-4.54.72-5.98,2.17-1.43,1.45-2.38,3.53-2.84,6.26h16.64c0-1.06-.14-2.09-.41-3.1-.27-1-.72-1.9-1.33-2.69-.62-.79-1.43-1.43-2.43-1.91-1-.49-2.22-.73-3.66-.73Z"/>
      <path class="cls-1" d="M447.55,98.38v-44.59h7.91c.66,0,1.21.06,1.66.17.44.12.82.29,1.12.54.3.24.53.57.69.97.16.4.29.89.41,1.46l.73,4.17c1.63-2.52,3.47-4.51,5.5-5.98,2.04-1.46,4.26-2.19,6.67-2.19,2.04,0,3.67.49,4.9,1.46l-1.72,9.8c-.11.6-.34,1.02-.69,1.27-.34.24-.8.37-1.38.37-.49,0-1.06-.06-1.72-.19-.66-.13-1.49-.19-2.49-.19-3.5,0-6.25,1.86-8.26,5.59v27.35h-13.33Z"/>
    </g>
  </g>
  <g id="Logo_and_Wordmark" data-name="Logo and Wordmark">
    <g>
      <path class="cls-1" d="M62.38,80.24l25.39-40.28c-.72-.68-1.51-1.34-2.39-1.89h0c-.85-.54-1.78-1-2.72-1.36l-25.4,40.3c1.82.84,3.58,1.95,5.13,3.23Z"/>
      <path class="cls-1" d="M66.5,85.07h0c.15.28.27.56.39.84l23.25-36.89c1.08-1.72,1.15-3.63.2-5.68-.14-.31-.35-.62-.54-.93l-25.19,39.96c.76.86,1.41,1.77,1.89,2.69Z"/>
      <path class="cls-1" d="M54.37,75.92l25.21-40h0c-2.47-.27-4.77.4-6.15,2.57l-23.26,36.89c.3-.01.61-.02.93,0,1.04.04,2.14.23,3.26.55Z"/>
      <path class="cls-1" d="M55.59,93.83h0c.19.37.33.74.43,1.11l8.17-4.8c.5-1.03.38-2.26-.37-3.68-2.09-3.98-8.33-7.91-12.82-8.08-1.6-.06-2.77.36-3.47,1.26l-.8,9.45c1.65-.3,3.64.14,5.62,1.38,1.44.91,2.59,2.1,3.25,3.35Z"/>
      <path class="cls-1" d="M107.86,0h-.01S22.32.01,22.32.01C9.99.01,0,10,0,22.33v85.53C0,120.18,9.99,130.18,22.33,130.18h85.53c12.33,0,22.32-9.99,22.32-22.33V22.33C130.18,10,120.19,0,107.86,0ZM112.3,93.86l-22.05,10.7c-.97.47-2.02.71-3.1.71h-17.21v.04s-22.06-.04-22.06-.04h-3.74s-.02,0-.03,0h-.04,0c-.32.02-.63-.05-.91-.22-.48-.3-.75-.84-.7-1.4l1.64-19.27-14.9,7.23h0s-4.65,2.25-4.65,2.25c-1.28.62-2.78.61-4.05-.02-.84-.42-.8-1.63.04-2.04,0,0,17.54-8.19,23.21-11.26.22-.12.53-.17.7-.16l.12-1.38s.02-.03.02-.05c.02-.22.08-.43.21-.63l26.11-41.41h0s0,0,0-.01l6.87-10.89c1.72-2.73,4.61-4.16,8.14-4.03,5.36.21,11.29,3.94,13.79,8.69h0c1.64,3.12,1.6,6.34-.13,9.08l-32.98,52.32c-.13.2-.29.34-.48.46-.01.01-.02.03-.04.04l-15.46,9.07,19.31.02h0s16.48.01,16.48.01c1.02,0,2.03-.23,2.94-.68l15.93-7.73c.36-.17.36-.68,0-.86l-16.69-8.1c-.42-.2-.88-.31-1.35-.31h-9.77l2.83-3.62h6.42c1.36,0,2.7.31,3.92.9l21.66,10.51c.87.42.87,1.67,0,2.09Z"/>
    </g>
  </g>
</svg>