<?xml version="1.0" encoding="utf-8"?>
<!-- Generator: Adobe Illustrator 26.1.0, SVG Export Plug-In . SVG Version: 6.00 Build 0)  -->
<svg version="1.1" id="Layer_1" xmlns="http://www.w3.org/2000/svg" xmlns:xlink="http://www.w3.org/1999/xlink" x="0px" y="0px"
	 viewBox="0 0 31.8 31.9" style="enable-background:new 0 0 31.8 31.9;" xml:space="preserve">
<style type="text/css">
	.st0{fill:#F8F8F9;stroke:#6AAE45;stroke-width:1.5;stroke-miterlimit:10;}
	.st1{fill:#666666;}
</style>
<g>
	<path class="st0" d="M17.3,27.1h-11c-1.7,0-3-1.4-3-3V7.8c0-1.7,1.4-3,3-3h11c1.7,0,3,1.4,3,3v16.3C20.4,25.8,19,27.1,17.3,27.1z"
		/>
	<g>
		<polygon class="st1" points="29.2,21.2 25.4,27.1 21.6,21.2 		"/>
		<path class="st1" d="M14.3,16.3c-0.1-0.9-0.5-4.9-0.8-7.2C13.3,7.5,11.6,6,9.5,6C6.8,5.9,4.1,8.7,3.7,9.8c1.2-1.1,3.4-1.5,5-1.4
			s2,0.6,2,1.7c0.1,2.2,0.2,5.3,0,6.2H8.8l3.8,5.9l3.8-5.9H14.3z"/>
	</g>
</g>
</svg>
