<?xml version="1.0" encoding="utf-8"?>
<!-- Generator: Adobe Illustrator 26.1.0, SVG Export Plug-In . SVG Version: 6.00 Build 0)  -->
<svg version="1.1" id="Layer_1" xmlns="http://www.w3.org/2000/svg" xmlns:xlink="http://www.w3.org/1999/xlink" x="0px" y="0px"
	 viewBox="0 0 31.8 31.9" style="enable-background:new 0 0 31.8 31.9;" xml:space="preserve">
<style type="text/css">
	.st0{fill:#E4E4E4;}
</style>
<g>
	<path class="st0" d="M23,18.4c0.3,0,0.6-0.1,0.9-0.3c0.2-0.2,0.4-0.5,0.4-0.8v-2.1c0-0.3-0.2-0.6-0.4-0.8c-0.2-0.2-0.5-0.3-0.9-0.3
		l0,0l-2-0.3c-0.1-0.4-0.3-0.8-0.5-1.2l1.2-1.6c0.2-0.3,0.4-0.6,0.4-0.9S22,9.5,21.8,9.3l-1.5-1.5c-0.2-0.2-0.5-0.3-0.8-0.3
		s-0.7,0.2-0.9,0.4l-1.7,0.9c-0.4-0.2-0.8-0.4-1.2-0.5l0,0l-0.3-2c0-0.3-0.1-0.6-0.3-0.9C14.9,5.2,14.6,5,14.3,5h-2.1
		c-0.3,0-0.6,0.2-0.8,0.4c-0.2,0.2-0.3,0.5-0.3,0.9l0,0l-0.3,2C10.4,8.4,10,8.6,9.6,8.8L8,7.6C7.7,7.4,7.4,7.2,7.1,7.2
		S6.5,7.3,6.3,7.5l0,0L4.8,9C4.6,9.2,4.5,9.5,4.5,9.8s0.2,0.7,0.4,0.9l1.2,1.6c-0.2,0.4-0.4,0.8-0.5,1.2l0,0l-2,0.3
		c-0.3,0-0.6,0.1-0.9,0.3c-0.2,0.2-0.4,0.5-0.4,0.8V17c0,0.3,0.2,0.6,0.4,0.8c0.2,0.2,0.5,0.3,0.9,0.3l2,0.3
		c0.1,0.4,0.3,0.8,0.5,1.2l-1.2,1.6c-0.2,0.3-0.4,0.6-0.4,0.9s0.1,0.6,0.3,0.8l1.5,1.5c0.2,0.2,0.5,0.3,0.8,0.3s0.7-0.2,0.9-0.4
		l1.6-1.2c0.4,0.2,0.8,0.4,1.2,0.5l0,0l0.3,2c0,0.3,0.1,0.6,0.3,0.9c0.2,0.2,0.5,0.4,0.8,0.4h2.1c0.3,0,0.6-0.2,0.8-0.4
		c0.2-0.2,0.3-0.5,0.3-0.9l0,0l0.3-2c0.4-0.1,0.8-0.3,1.2-0.5l1.6,1.2c0.3,0.2,0.6,0.4,0.9,0.4s0.6-0.1,0.8-0.3l0,0l1.5-1.5
		c0.2-0.2,0.3-0.5,0.3-0.8s-0.2-0.7-0.4-0.9l-1.1-1.3c0.2-0.4,0.4-0.8,0.5-1.2L23,18.4L23,18.4z M17,12.3c1,1,1.6,2.4,1.6,3.8
		S18,18.9,17,19.9s-2.4,1.6-3.8,1.6s-2.8-0.6-3.8-1.6s-1.6-2.4-1.6-3.8s0.6-2.8,1.6-3.8s2.4-1.6,3.8-1.6S16,11.3,17,12.3z"/>
	<polygon class="st0" points="29.5,19.7 25.7,25.6 21.9,19.7 	"/>
</g>
</svg>
