<?xml version="1.0" encoding="utf-8"?>
<!-- Generator: Adobe Illustrator 26.1.0, SVG Export Plug-In . SVG Version: 6.00 Build 0)  -->
<svg version="1.1" id="Layer_1" xmlns="http://www.w3.org/2000/svg" xmlns:xlink="http://www.w3.org/1999/xlink" x="0px" y="0px"
	 viewBox="0 0 31.8 31.9" style="enable-background:new 0 0 31.8 31.9;" xml:space="preserve">
<style type="text/css">
	.st0{fill:#E4E4E4;}
</style>
<g>
	<g>
		<path class="st0" d="M13,19.4c-0.1-0.2-0.2-0.4-0.2-0.6c-0.1-0.2-0.1-0.4-0.1-0.7c0-0.7,0.2-1.3,0.5-1.9s0.7-1.1,1.1-1.6
			c0.4-0.5,0.8-1.1,1.1-1.7c0.3-0.6,0.5-1.2,0.5-2S15.6,9.4,15.1,9s-1.2-0.6-1.9-0.6c-0.5,0-0.9,0-1.2,0.1s-0.6,0.1-0.8,0.2
			c-0.2,0.1-0.4,0.2-0.5,0.4c-0.1,0.1-0.3,0.3-0.4,0.4c0.4,0,0.7,0.2,0.9,0.5c0.3,0.3,0.4,0.7,0.4,1.3s-0.2,1.1-0.5,1.5
			s-0.9,0.6-1.7,0.6c-0.6,0-1-0.2-1.4-0.7c-0.4-0.4-0.5-1-0.5-1.6c0-0.5,0.1-1.1,0.4-1.6C8.1,8.9,8.5,8.4,9,7.9s1.2-0.9,2.1-1.2
			C12,6.4,13,6.2,14.3,6.2c0.9,0,1.7,0.1,2.5,0.2s1.5,0.4,2.1,0.7C19.5,7.6,20,8,20.4,8.6s0.5,1.3,0.5,2.2c0,0.8-0.2,1.5-0.5,2.1
			c-0.3,0.6-0.7,1-1.1,1.5s-0.9,0.8-1.5,1.1c-0.5,0.3-1,0.7-1.5,1c-0.5,0.4-0.9,0.8-1.2,1.2c-0.3,0.5-0.5,1-0.5,1.6L13,19.4L13,19.4
			z M14,20.5c0.3,0,0.6,0.1,0.9,0.2s0.5,0.3,0.7,0.5s0.4,0.5,0.5,0.8c0.1,0.3,0.2,0.6,0.2,0.9c0,0.7-0.2,1.2-0.7,1.7
			c-0.5,0.5-1,0.7-1.7,0.7c-0.3,0-0.6-0.1-0.9-0.2c-0.3-0.1-0.6-0.3-0.8-0.5s-0.4-0.5-0.5-0.8s-0.2-0.6-0.2-0.9s0.1-0.6,0.2-0.9
			s0.3-0.5,0.5-0.8s0.5-0.4,0.8-0.5S13.7,20.5,14,20.5z"/>
	</g>
	<g>
		<polygon class="st0" points="24.3,19.7 20.5,25.6 16.7,19.7 		"/>
	</g>
</g>
</svg>
