<?xml version="1.0" encoding="utf-8"?>
<!-- Generator: Adobe Illustrator 26.1.0, SVG Export Plug-In . SVG Version: 6.00 Build 0)  -->
<svg version="1.1" id="Layer_1" xmlns="http://www.w3.org/2000/svg" xmlns:xlink="http://www.w3.org/1999/xlink" x="0px" y="0px"
	 viewBox="0 0 32 32" style="enable-background:new 0 0 32 32;" xml:space="preserve">
<style type="text/css">
	.st0{fill:#E4E4E4;}
</style>
<g>
	<polygon class="st0" points="6.9,12.6 3.9,12.6 3.9,6 10.6,6 10.6,9 6.9,9 	"/>
</g>
<g>
	<polygon class="st0" points="28.1,12.6 25.1,12.6 25.1,9 21.4,9 21.4,6 28.1,6 	"/>
</g>
<g>
	<polygon class="st0" points="10.6,26 3.9,26 3.9,19.5 6.9,19.5 6.9,23 10.6,23 	"/>
</g>
<g>
	<polygon class="st0" points="28.1,26 21.4,26 21.4,23 25.1,23 25.1,19.5 28.1,19.5 	"/>
</g>
<rect x="12.3" y="12.2" transform="matrix(0.7071 -0.7071 0.7071 0.7071 -6.5981 16.0806)" class="st0" width="7.6" height="7.6"/>
</svg>
