<?xml version="1.0" encoding="utf-8"?>
<!-- Generator: Adobe Illustrator 26.1.0, SVG Export Plug-In . SVG Version: 6.00 Build 0)  -->
<svg version="1.1" id="Layer_1" xmlns="http://www.w3.org/2000/svg" xmlns:xlink="http://www.w3.org/1999/xlink" x="0px" y="0px"
	 viewBox="0 0 32 32" style="enable-background:new 0 0 32 32;" xml:space="preserve">
<style type="text/css">
	.st0{fill:#EEEEEE;}
	.st1{fill:#EEEEEE;}
</style>
<g>
	<g>
		<g>
			<polygon class="st0" points="8.6,12.1 6,12.1 6,6 12.1,6 12.1,8.5 8.6,8.5 			"/>
		</g>
		<g>
			<polygon class="st0" points="26,12.1 23.4,12.1 23.4,8.5 19.9,8.5 19.9,6 26,6 			"/>
		</g>
		<g>
			<polygon class="st0" points="12.1,26 6,26 6,19.9 8.6,19.9 8.6,23.5 12.1,23.5 			"/>
		</g>
		<g>
			<polygon class="st0" points="26,26 19.9,26 19.9,23.5 23.4,23.5 23.4,19.9 26,19.9 			"/>
		</g>
	</g>
	<rect x="12.3" y="12.2" transform="matrix(0.7071 -0.7071 0.7071 0.7071 -6.5859 16.0584)" class="st1" width="7.6" height="7.6"/>
</g>
</svg>
