<?xml version="1.0" encoding="utf-8"?>
<!-- Generator: Adobe Illustrator 26.1.0, SVG Export Plug-In . SVG Version: 6.00 Build 0)  -->
<svg version="1.1" id="Layer_1" xmlns="http://www.w3.org/2000/svg" xmlns:xlink="http://www.w3.org/1999/xlink" x="0px" y="0px"
	 viewBox="0 0 31.8 31.9" style="enable-background:new 0 0 31.8 31.9;" xml:space="preserve">
<style type="text/css">
	.st0{fill:#F8F8F9;stroke:#6AAE45;stroke-width:1.5;stroke-miterlimit:10;}
	.st1{fill:#666666;}
</style>
<g>
	<g>
		<path class="st0" d="M17.3,27.1h-11c-1.7,0-3-1.4-3-3V7.8c0-1.7,1.4-3,3-3h11c1.7,0,3,1.4,3,3v16.3C20.4,25.8,19,27.1,17.3,27.1z"
			/>
	</g>
	<g>
		<polygon class="st1" points="29.2,21.2 25.4,27.1 21.6,21.2 		"/>
		<path class="st1" d="M23.3,9.8c-0.9,0.1-4.9,0.5-7.2,0.8c-1.6,0.2-3.1,1.9-3.1,4c-0.1,2.7,2.7,5.4,3.8,5.8c-1.1-1.2-1.5-3.4-1.4-5
			s0.6-2,1.7-2c2.2-0.1,5.3-0.2,6.2,0v1.9l5.9-3.8l-5.9-3.8V9.8z"/>
	</g>
</g>
</svg>
