<?xml version="1.0" encoding="utf-8"?>
<!-- Generator: Adobe Illustrator 26.1.0, SVG Export Plug-In . SVG Version: 6.00 Build 0)  -->
<svg version="1.1" id="Layer_1" xmlns="http://www.w3.org/2000/svg" xmlns:xlink="http://www.w3.org/1999/xlink" x="0px" y="0px"
	 viewBox="0 0 31.8 31.9" style="enable-background:new 0 0 31.8 31.9;" xml:space="preserve">
<style type="text/css">
	.st0{fill:#999999;}
</style>
<g>
	<g>
		<g>
			<path class="st0" d="M22.7,18.4c0.3,0,0.6-0.1,0.9-0.3c0.2-0.2,0.4-0.5,0.4-0.8v-2.1c0-0.3-0.2-0.6-0.4-0.8
				c-0.2-0.2-0.5-0.3-0.9-0.3l0,0l-2-0.3c-0.1-0.4-0.3-0.8-0.5-1.2l1.2-1.6c0.2-0.3,0.4-0.6,0.4-0.9c0-0.3-0.1-0.6-0.3-0.8L20,7.8
				c-0.2-0.2-0.5-0.3-0.8-0.3s-0.7,0.2-0.9,0.4l-1.7,0.9c-0.4-0.2-0.8-0.4-1.2-0.5l0,0l-0.3-2c0-0.3-0.1-0.6-0.3-0.9
				C14.6,5.2,14.3,5,14,5h-2.1c-0.3,0-0.6,0.2-0.8,0.4c-0.2,0.2-0.3,0.5-0.3,0.9l0,0l-0.3,2c-0.4,0.1-0.8,0.3-1.2,0.5L7.7,7.6
				C7.4,7.4,7.1,7.2,6.8,7.2S6.2,7.3,6,7.5l0,0L4.5,9C4.3,9.2,4.2,9.5,4.2,9.8c0,0.3,0.2,0.7,0.4,0.9l1.2,1.6
				c-0.2,0.4-0.4,0.8-0.5,1.2l0,0l-2,0.3c-0.3,0-0.6,0.1-0.9,0.3C2.2,14.3,2,14.6,2,14.9V17c0,0.3,0.2,0.6,0.4,0.8
				c0.2,0.2,0.5,0.3,0.9,0.3l2,0.3c0.1,0.4,0.3,0.8,0.5,1.2l-1.2,1.6c-0.2,0.3-0.4,0.6-0.4,0.9s0.1,0.6,0.3,0.8L6,24.4
				c0.2,0.2,0.5,0.3,0.8,0.3s0.7-0.2,0.9-0.4l1.6-1.2c0.4,0.2,0.8,0.4,1.2,0.5l0,0l0.3,2c0,0.3,0.1,0.6,0.3,0.9
				c0.2,0.2,0.5,0.4,0.8,0.4H14c0.3,0,0.6-0.2,0.8-0.4s0.3-0.5,0.3-0.9l0,0l0.3-2c0.4-0.1,0.8-0.3,1.2-0.5l1.6,1.2
				c0.3,0.2,0.6,0.4,0.9,0.4s0.6-0.1,0.8-0.3l0,0l1.5-1.5c0.2-0.2,0.3-0.5,0.3-0.8s-0.2-0.7-0.4-0.9l-1.1-1.3
				c0.2-0.4,0.4-0.8,0.5-1.2L22.7,18.4L22.7,18.4z M16.8,12.3c1,1,1.6,2.4,1.6,3.8s-0.6,2.8-1.6,3.8s-2.4,1.6-3.8,1.6
				s-2.8-0.6-3.8-1.6s-1.6-2.4-1.6-3.8s0.6-2.8,1.6-3.8s2.4-1.6,3.8-1.6S15.8,11.3,16.8,12.3z"/>
		</g>
	</g>
	<polygon class="st0" points="29.8,20 26,25.9 22.2,20 	"/>
</g>
</svg>
